<svg width="2600" height="2450" xmlns="http://www.w3.org/2000/svg"><path fill="none" d="M-1-1h2602v2452H-1z"/><g><path fill-rule="evenodd" fill="#dadfe7" d="M337 2422.00005c-215-75-337-247-337-472 0-157 37-250 305-749 75-141 172-325 217-410 250-479 288-540 395-642 111-104 225-149 383-149 156 0 271 45 380 147 94 89 149 173 305 469 268 509 338 641 416 785 158 294 199 406 199 549 0 288-205 491-495 491-179 0-297-47-475-189-58-46-135-98-170-115-59-28-75-31-160-31-86 0-102 3-160 31-36 17-113 69-171 115-125 99-202 142-304 169-101 26-255 27-328 1m75-180c-53-16-110-51-141-86-34-39-66-95-58-102 2-3 22 6 43 20 109 72 261 81 387 24 28-14 101-61 162-106 189-141 321-192 493-193 162-1 307 52 471 171 98 71 139 79 184 34 41-41 35-77-35-216-68-137-284-545-421-797l-89-165 25-53c15-29 30-52 34-52s36 53 70 117c34 65 117 219 183 343 67 123 177 334 245 467 114 222 125 247 125 297 0 89-29 139-103 176-44 23-133 26-180 6-18-8-66-39-107-71-142-108-251-149-395-149-168 1-274 44-450 186-55 44-128 94-161 109-91 43-216 60-282 40m1788-41c46-60 79-142 86-212 11-119-16-186-259-648-273-521-484-904-505-918-12-8-39-14-59-14-30 0-44 6-67 33-24 27-256 459-449 835-41 81-42 82-111 112-39 17-72 29-74 27-4-4 291-578 466-905 93-176 130-212 222-219 60-4 103 11 148 52 31 29 98 142 226 387 60 112 127 241 150 285 299 564 382 726 403 783 32 88 35 206 5 273-37 84-111 148-187 164l-25 5 30-40m-1819-279c-73-36-107-106-99-203 6-66 21-99 162-362 53-99 130-245 172-325 42-81 89-169 104-196 14-28 60-113 100-190 134-257 192-338 284-397 32-21 63-38 67-38 5 0-8 25-30 57-21 32-200 366-397 743-389 744-385 734-332 787 46 46 88 38 183-34 240-183 424-260 646-271 110-5 281 14 315 36 10 6 74 124 74 135 0 3-24-4-53-16-113-43-276-58-407-37-164 25-303 90-483 225-144 107-219 128-306 86m779-627c0-3 30-62 66-130 53-99 70-123 79-112 6 7 39 65 73 130l62 118h-140c-77 0-140-3-140-6"/></g></svg>