<?xml version="1.0" encoding="UTF-8"?>
<svg viewBox="0 0 400 168.68" xmlns="http://www.w3.org/2000/svg">
<path fill="white" d="m288.43 19.46c-13.429 0.685-39.41 5.009-56.228 9.358-51.777 13.391-119.96 42.655-161.42 69.288l-5.553 3.566-8.003 2.018c-25.894 6.529-29.824 7.877-29.824 10.231 0 3.113 5.09 2.77 19.286-1.298 3.736-1.071 6.861-1.947 6.946-1.947 0.084 0-1.148 1.481-2.738 3.292-4.445 5.062-5.789 8.037-5.989 13.256l-0.155 4.057-3.07 1.128c-1.689 0.62-7.593 2.705-13.121 4.633-12.973 4.526-13.477 4.816-12.558 7.234 1.025 2.697 7.213 1.816 23.856-3.396l8.009-2.508 2.186 1.46c13.342 8.909 57.671 11.15 87.49 4.423 25.516-5.756 76.2-21.451 117.13-36.271 30.641-11.094 42.626-19.356 34.289-23.639-3.002-1.542-39.717-2.368-53.469-1.203-3.498 0.297-4.426 0.189-3.47-0.402 0.657-0.406 0.365-1.825-0.554-2.688-1.209-1.136-3.58-1.337-16.705-1.415l-10.321-0.061 5.338-0.848c58.631-9.318 131.9-17.296 166.55-18.135 10.834-0.263 11.733-0.521 11.065-3.18-0.485-1.932-0.874-1.982-12.326-1.6-67.247 2.243-203.32 21.288-272.05 38.078-11.478 2.803-25.494 5.952-25.184 5.657 1.406-1.338 26.305-14.819 38.178-20.67 63.305-31.199 118.47-48.918 171.71-55.153 2.153-0.252 7.278-0.46 11.388-0.461l7.474-4e-3 2.585 1.134c2.591 1.136 3.419 1.19 3.782 0.244 1.197-3.122-9.493-4.943-24.517-4.178m-67.26 64.389c-1.37 0.482-4.332 1.12-6.583 1.416-34.631 4.556-109.25 24.308-158.36 41.916-8.239 2.954-8.052 2.965-7.732-0.45 0.387-4.131 1.596-6.278 6.308-11.204 7.529-7.871 6.529-7.45 34.377-14.476 29.854-7.533 81.725-16.048 109.04-17.9 0.88-0.06 6.966-0.125 13.523-0.144l11.921-0.036-2.491 0.878m60.634 3.326c5.014 0.364 5.582 0.632 4.094 1.925-5.326 4.627-17.812 9.786-51.881 21.436-48.405 16.552-86.162 27.623-106.8 31.313-22.722 4.064-63.958 1.581-73.872-4.448l-1.015-0.617 24.455-8.057c42.238-13.917 65.994-20.757 110.22-31.735 31.967-7.936 32.34-8.014 42.747-8.927 12.29-1.077 42.389-1.592 52.05-0.89"/>
</svg>
