<?xml version="1.0" encoding="UTF-8"?>
<svg version="1.1" viewBox="0 0 400 400" xmlns="http://www.w3.org/2000/svg">
<g fill-rule="evenodd">
<path d="m197.1 57.922c-0.321 0.272-1.038 1.123-1.593 1.891-1.728 2.392-1.41 2.286-7.026 2.342-16.07 0.161-31.939 9.203-40.353 22.994-0.554 0.907-1.156 1.894-1.339 2.193l-0.333 0.544-0.239-0.85c-0.564-2.01-2.173-2.245-5.518-0.806-15.817 6.807-22.121 20.919-15.252 34.142l1.096 2.11-0.916 1.3c-4.136 5.867-6.372 18.04-4.824 26.264 0.226 1.199 0.21 1.733-0.097 3.411-0.699 3.811-0.79 5.108-0.795 11.276-6e-3 8.919 1.117 16.626 3.428 23.527 1.17 3.492 1.164 3.224 0.084 3.711-4.129 1.862-4.713 7.727-1.973 19.8 0.767 3.383 2.315 11.584 2.657 14.082 0.957 6.993 2.547 11.774 4.481 13.477 0.939 0.826 1.435 1.028 3.735 1.519l0.864 0.185 0.401 2.354c1.437 8.446 4.18 17.836 6.958 23.829l1.021 2.2 0.086 5.991c0.155 10.728-0.915 18.428-3.207 23.091-1.253 2.549-1.212 2.803 0.909 5.64 12.541 16.772 32.688 29.727 52.217 33.577 23.61 4.655 43.665-3.076 52.356-20.181l1.186-2.333-0.022-14.926-0.022-14.927 2.507-2.905c1.379-1.599 3.043-3.599 3.699-4.446s1.865-2.369 2.688-3.382 1.751-2.35 2.063-2.97c0.311-0.621 0.899-1.674 1.306-2.339 1.718-2.808 3.552-7.803 6.101-16.614 1.374-4.75 3.64-19.076 4.437-28.051 0.07-0.786 0.223-2.37 0.34-3.52s0.364-6.971 0.55-12.936l0.338-10.847 0.978-2.795c4.885-13.961 5.566-19.044 3.958-29.527-0.288-1.876-0.683-4.995-0.878-6.931s-0.496-4.56-0.668-5.831c-0.172-1.27-0.426-3.334-0.565-4.586l-0.253-2.276 0.878-0.914c5.504-5.734 7.661-16.342 4.03-19.821l-0.644-0.617 0.845-1.24c0.9-1.319 2.643-6.156 2.643-7.334 0-1.222-1.329-2.596-2.51-2.596-0.816 0-4.556-2.015-5.58-3.006-3.065-2.969-4.802-5.821-7.751-12.725-7.451-17.447-17.887-27.388-28.759-27.394l-2.155-2e-3 -1.622-1.891c-3.169-3.696-5.583-3.27-5.998 1.057-0.475 4.955-2.149 7.964-5.468 9.83l-0.886 0.498 0.134-2.82c0.267-5.618-1.374-9.679-5.643-13.967-3.315-3.33-5.507-2.916-6.675 1.261-0.689 2.459-1.365 4.07-1.517 3.615-0.061-0.182-0.229-0.924-0.374-1.65-1.153-5.778-5.073-9.822-7.519-7.755m-52.244 33.731c-0.7 1.735-1.569 5.233-1.965 7.907l-0.163 1.1-0.402-0.898c-1.761-3.937-0.743-8.134 2.316-9.543 0.494-0.227 0.915-0.421 0.935-0.431 0.021-0.011-0.304 0.829-0.721 1.865m39.312 46.275c4.896 1.066 9.733 2.979 12.967 5.127 2.01 1.334 3.823 1.375 5.83 0.131 3.051-1.89 6.515-2.662 11.891-2.649 5.712 0.013 8.568 1.046 20.453 7.396 4.402 2.352 10.821 4.655 13.685 4.91 2.243 0.199 2.692 0.87 4.473 6.673 0.279 0.908 0.974 3.086 1.544 4.84 0.571 1.755 1.152 3.686 1.291 4.291 0.14 0.605 0.64 2.536 1.112 4.29 2.483 9.237 3.516 14.093 2.992 14.072-1.794-0.07-7.349-1.551-8.06-2.148-7.318-6.145-26.097-6.744-31.8-1.015l-1.341 1.347-3.609 0.464c-1.986 0.256-5.045 0.735-6.8 1.065-5.43 1.023-13.472 0.722-18.482-0.691-0.181-0.051-2.204-0.305-4.495-0.563l-4.164-0.47-0.904-0.929c-3.548-3.652-7.091-4.505-16.18-3.896-8.372 0.56-13.207 1.987-17.257 5.091-1.037 0.794-1.681 1.109-2.671 1.304-2.316 0.457-6.111 1.367-7.385 1.772l-1.241 0.394 0.108-0.913c0.159-1.337 1.352-7.386 1.634-8.283 1.783-5.672 3.732-9.283 6.804-12.609l1.586-1.717-0.037-2.622c-0.062-4.46 0.672-8.554 2.186-12.192 3.709-8.908 22.397-15.405 35.87-12.47m-5.405 50.954c6.063 0.617 11.714 1.325 12.474 1.562 1.553 0.486-0.16 11.749-2.586 16.999-1.365 2.955-0.302 5.088 2.045 4.101 1.785-0.75 4.146-7.944 5.088-15.504l0.37-2.971 2.959-0.18c1.627-0.099 3.269-0.122 3.647-0.051l0.688 0.129 0.139 2.471c0.162 2.899 0.506 4.944 1.597 9.487 2.143 8.922 3.157 12.645 5.393 19.783 1.773 5.665 1.241 7.469-3.78 12.806-3.231 3.434-4.095 4.739-3.836 5.795 0.557 2.264 3.14 2.864 4.639 1.076 0.328-0.391 1.845-2.032 3.371-3.648 4.857-5.139 5.619-6.818 5.481-12.075-0.08-3.063-0.132-3.388-0.908-5.67-0.453-1.331-0.975-3.014-1.16-3.74-0.26-1.024-1.629-5.614-2.175-7.294-0.051-0.158 0.207-0.253 0.69-0.253 2.042 0 2.391-1.446 1.107-4.587-1.714-4.196-3.01-10.247-3.01-14.055 0-2.451 0.135-2.652 1.925-2.858 0.696-0.081 2.157-0.288 3.246-0.461 1.089-0.172 3.316-0.362 4.95-0.422 1.634-0.059 3.961-0.274 5.171-0.476 1.616-0.271 3.63-0.372 7.59-0.383l5.391-0.014 3.41 0.813c8.26 1.969 8.778 2.029 10.071 1.175l0.82-0.542 2.971 0.597 2.97 0.597 0.529 1.32c0.431 1.074 0.525 1.684 0.506 3.273-0.03 2.378 0.522 3.218 2.115 3.218 0.516 0 0.918 0.118 0.984 0.287 0.166 0.434-0.461 19.328-0.719 21.643-0.124 1.109-0.225 2.545-0.225 3.19 0 3.088-2.968 22.51-3.995 26.145-4.298 15.215-5.592 17.725-14.514 28.146-2.997 3.5-9.801 10.16-19.155 18.748-4.75 4.361-8.753 6.584-13.051 7.248-0.726 0.112-2.409 0.377-3.74 0.588-3.927 0.625-14.188 0.493-19.092-0.246-7.592-1.143-10.717-3.013-19.724-11.8-1.055-1.028-3.05-2.909-4.433-4.179-13.986-12.839-20.622-22.458-23.405-33.925-0.156-0.643-0.635-2.312-1.065-3.709s-0.883-3.228-1.005-4.07-0.572-3.611-0.999-6.152c-0.817-4.856-1.946-13.576-2.337-18.042-0.422-4.817-0.85-5.922-2.421-6.24-1.075-0.218-1.189-1.107-0.233-1.813 1.533-1.134 1.603-3.29 0.219-6.76-0.796-1.996-0.795-2.018 0.039-2.018 0.483 0 0.902-0.22 1.433-0.751l0.751-0.751-0.149-5.117c-0.145-4.983-0.138-5.113 0.273-4.947 0.231 0.093 0.69 0.267 1.019 0.386 0.46 0.167 0.63 0.405 0.73 1.023 0.667 4.101 4.77 4.262 4.348 0.171-0.371-3.597 1.507-6.057 3.559-4.664 1.082 0.734 1.919 0.72 3.905-0.065 4.022-1.591 7.449-2.446 10.648-2.656 4.148-0.272 14.417-0.098 18.456 0.312m47.855 2.413c-7.493 1.59-13.352 8.009-9.248 10.131 1.43 0.74 2.107 0.446 4.458-1.937 1.588-1.61 1.803-1.664 2.02-0.508 0.529 2.823 3.251 4.004 7.408 3.216 1.933-0.367 3.502-2.484 3.502-4.724v-0.75l1.157 0.398c1.832 0.63 3.887 1.732 5.554 2.976 2.761 2.061 4.093 2.191 5.267 0.515 3.026-4.32-11.647-11.116-20.118-9.317m-59.296 0.888c-4.393 0.614-9.562 3.155-12.911 6.348-3.452 3.29-0.019 6.958 3.548 3.79 1.817-1.614 5.468-3.861 6.273-3.861 0.049 0 0.201 0.544 0.339 1.208 0.529 2.548 2.181 4.075 4.401 4.068 4.484-0.015 6.163-1.197 6.561-4.622l0.15-1.282 1.54 0.727c0.847 0.399 2.083 1.197 2.747 1.772 2.297 1.992 3.624 2.206 4.891 0.787 1.177-1.316 0.727-2.876-1.343-4.662-4.248-3.664-9.895-5.154-16.196-4.273m-38.189 5.672 1.53 1.375 0.016 1.21c8e-3 0.666 0.08 1.458 0.159 1.76 0.119 0.453-0.105 0.317-1.276-0.773-1.248-1.163-3.03-2.272-4.209-2.62-0.538-0.158-0.504-1.329 0.055-1.887 0.893-0.894 2-0.616 3.725 0.935m-1.748 9.102c0.504 0.74 1.158 2.012 1.454 2.826l0.537 1.481-0.66 0.751c-0.363 0.414-0.827 1.073-1.031 1.464l-0.37 0.712-0.283-1.21c-0.156-0.665-0.538-2.596-0.85-4.29s-0.603-3.251-0.648-3.459c-0.147-0.681 0.838 0.237 1.851 1.725m2.851 18.559c0.959 0.489 0.981 0.57 1.667 6.057 0.182 1.452 0.387 2.913 0.455 3.245 0.189 0.917-0.274 0.736-0.811-0.316-0.586-1.15-1.133-3.107-1.738-6.229-0.259-1.331-0.52-2.594-0.58-2.805-0.14-0.488-0.035-0.483 1.007 0.048m60.526 11.07c-2.482 0.871-2.049 4.988 0.526 4.997 0.232 1e-3 1.6 0.506 3.038 1.123 2.937 1.261 3.634 1.298 4.617 0.251 0.785-0.836 0.954-1.82 0.483-2.812-0.877-1.847-6.712-4.244-8.664-3.559m-13.564 20.395c-1.228 0.497-1.866 2.183-1.286 3.404 0.935 1.97 6.605 4.134 12.422 4.74 1.27 0.133 3.019 0.342 3.886 0.464 2.179 0.309 14.675 0.206 18.556-0.152 8.755-0.808 10.423-1.095 12.541-2.156 2.214-1.108 2.988-2.736 2.054-4.317-0.749-1.268-2.281-1.434-4.218-0.456-3.854 1.945-25.457 2.751-33.645 1.255-3.578-0.654-5.265-1.174-7.284-2.245-1.422-0.755-2.161-0.886-3.026-0.537m-29.144 21.461c2.16 2.861 7.453 8.564 10.687 11.515 0.726 0.663 3.162 2.966 5.413 5.119s4.479 4.247 4.951 4.654c0.471 0.406 1.304 1.178 1.849 1.715 3.603 3.541 8.478 6.315 13.305 7.569 10.509 2.731 26.22 2.147 34.328-1.275 0.968-0.408 2.156-0.816 2.64-0.905 1.303-0.239 3.292-0.989 7.591-2.861 3.542-1.542 10.241-4.083 10.766-4.083 0.144 0 0.247 2.43 0.291 6.876l0.069 6.875-0.851 1.761c-14.058 29.09-65.516 22.521-93.614-11.951-2.044-2.507-2.202-2.811-1.821-3.509 1.47-2.696 2.809-10.793 3.218-19.469 0.084-1.785 0.177-3.245 0.207-3.245s0.466 0.546 0.971 1.214" fill="#050505"/>
<path d="m0 200v200h200 200v-200-200h-200-200v200m200.44-142.03c1.73 1.199 3.563 4.57 4.188 7.704 0.145 0.726 0.313 1.468 0.374 1.65 0.152 0.455 0.828-1.156 1.517-3.615 1.168-4.177 3.36-4.591 6.675-1.261 4.269 4.288 5.91 8.349 5.643 13.967l-0.134 2.82 0.886-0.498c3.319-1.866 4.993-4.875 5.468-9.83 0.415-4.327 2.829-4.753 5.998-1.057l1.622 1.891 2.155 2e-3c10.872 6e-3 21.308 9.947 28.759 27.394 2.949 6.904 4.686 9.756 7.751 12.725 1.024 0.991 4.764 3.006 5.58 3.006 1.181 0 2.51 1.374 2.51 2.596 0 1.178-1.743 6.015-2.643 7.334l-0.845 1.24 0.644 0.617c3.631 3.479 1.474 14.087-4.03 19.821l-0.878 0.914 0.253 2.276c0.139 1.252 0.393 3.316 0.565 4.586 0.172 1.271 0.473 3.895 0.668 5.831s0.59 5.055 0.878 6.931c1.608 10.483 0.927 15.566-3.958 29.527l-0.978 2.795-0.338 10.847c-0.186 5.965-0.433 11.786-0.55 12.936s-0.27 2.734-0.34 3.52c-0.797 8.975-3.063 23.301-4.437 28.051-2.549 8.811-4.383 13.806-6.101 16.614-0.407 0.665-0.995 1.718-1.306 2.339-0.312 0.62-1.24 1.957-2.063 2.97s-2.032 2.535-2.688 3.382-2.32 2.847-3.699 4.446l-2.507 2.905 0.022 14.927 0.022 14.926-1.186 2.333c-8.691 17.105-28.746 24.836-52.356 20.181-19.529-3.85-39.676-16.805-52.217-33.577-2.121-2.837-2.162-3.091-0.909-5.64 2.292-4.663 3.362-12.363 3.207-23.091l-0.086-5.991-1.021-2.2c-2.778-5.993-5.521-15.383-6.958-23.829l-0.401-2.354-0.864-0.185c-2.3-0.491-2.796-0.693-3.735-1.519-1.934-1.703-3.524-6.484-4.481-13.477-0.342-2.498-1.89-10.699-2.657-14.082-2.74-12.073-2.156-17.938 1.973-19.8 1.08-0.487 1.086-0.219-0.084-3.711-2.311-6.901-3.434-14.608-3.428-23.527 5e-3 -6.168 0.096-7.465 0.795-11.276 0.307-1.678 0.323-2.212 0.097-3.411-1.548-8.224 0.688-20.397 4.824-26.264l0.916-1.3-1.096-2.11c-6.869-13.223-0.565-27.335 15.252-34.142 3.345-1.439 4.954-1.204 5.518 0.806l0.239 0.85 0.333-0.544c0.183-0.299 0.785-1.286 1.339-2.193 8.414-13.791 24.283-22.833 40.353-22.994 5.616-0.056 5.298 0.05 7.026-2.342 1.841-2.55 3.178-3.05 4.924-1.84m-55.789 32.246c-3.059 1.409-4.077 5.606-2.316 9.543l0.402 0.898 0.163-1.1c0.396-2.674 1.265-6.172 1.965-7.907 0.417-1.036 0.742-1.876 0.721-1.865-0.02 0.01-0.441 0.204-0.935 0.431m25.76 47.383c-10.361 1.704-19.748 7.139-22.104 12.796-1.514 3.638-2.248 7.732-2.186 12.192l0.037 2.622-1.586 1.717c-3.072 3.326-5.021 6.937-6.804 12.609-0.282 0.897-1.475 6.946-1.634 8.283l-0.108 0.913 1.241-0.394c1.274-0.405 5.069-1.315 7.385-1.772 0.99-0.195 1.634-0.51 2.671-1.304 4.05-3.104 8.885-4.531 17.257-5.091 9.089-0.609 12.632 0.244 16.18 3.896l0.904 0.929 4.164 0.47c2.291 0.258 4.314 0.512 4.495 0.563 5.01 1.413 13.052 1.714 18.482 0.691 1.755-0.33 4.814-0.809 6.8-1.065l3.609-0.464 1.341-1.347c5.703-5.729 24.482-5.13 31.8 1.015 0.711 0.597 6.266 2.078 8.06 2.148 0.524 0.021-0.509-4.835-2.992-14.072-0.472-1.754-0.972-3.685-1.112-4.29-0.139-0.605-0.72-2.536-1.291-4.291-0.57-1.754-1.265-3.932-1.544-4.84-1.781-5.803-2.23-6.474-4.473-6.673-2.864-0.255-9.283-2.558-13.685-4.91-11.885-6.35-14.741-7.383-20.453-7.396-5.376-0.013-8.84 0.759-11.891 2.649-2.007 1.244-3.82 1.203-5.83-0.131-6.754-4.486-18.298-6.841-26.733-5.453m-10.095 50.968c-3.199 0.21-6.626 1.065-10.648 2.656-1.986 0.785-2.823 0.799-3.905 0.065-2.052-1.393-3.93 1.067-3.559 4.664 0.422 4.091-3.681 3.93-4.348-0.171-0.1-0.618-0.27-0.856-0.73-1.023-0.329-0.119-0.788-0.293-1.019-0.386-0.411-0.166-0.418-0.036-0.273 4.947l0.149 5.117-0.751 0.751c-0.531 0.531-0.95 0.751-1.433 0.751-0.834 0-0.835 0.022-0.039 2.018 1.384 3.47 1.314 5.626-0.219 6.76-0.956 0.706-0.842 1.595 0.233 1.813 1.571 0.318 1.999 1.423 2.421 6.24 0.391 4.466 1.52 13.186 2.337 18.042 0.427 2.541 0.877 5.31 0.999 6.152s0.575 2.673 1.005 4.07 0.909 3.066 1.065 3.709c2.783 11.467 9.419 21.086 23.405 33.925 1.383 1.27 3.378 3.151 4.433 4.179 9.007 8.787 12.132 10.657 19.724 11.8 4.904 0.739 15.165 0.871 19.092 0.246 1.331-0.211 3.014-0.476 3.74-0.588 4.298-0.664 8.301-2.887 13.051-7.248 9.354-8.588 16.158-15.248 19.155-18.748 8.922-10.421 10.216-12.931 14.514-28.146 1.027-3.635 3.995-23.057 3.995-26.145 0-0.645 0.101-2.081 0.225-3.19 0.258-2.315 0.885-21.209 0.719-21.643-0.066-0.169-0.468-0.287-0.984-0.287-1.593 0-2.145-0.84-2.115-3.218 0.019-1.589-0.075-2.199-0.506-3.273l-0.529-1.32-2.97-0.597-2.971-0.597-0.82 0.542c-1.293 0.854-1.811 0.794-10.071-1.175l-3.41-0.813-5.391 0.014c-3.96 0.011-5.974 0.112-7.59 0.383-1.21 0.202-3.537 0.417-5.171 0.476-1.634 0.06-3.861 0.25-4.95 0.422-1.089 0.173-2.55 0.38-3.246 0.461-1.79 0.206-1.925 0.407-1.925 2.858 0 3.808 1.296 9.859 3.01 14.055 1.284 3.141 0.935 4.587-1.107 4.587-0.483 0-0.741 0.095-0.69 0.253 0.546 1.68 1.915 6.27 2.175 7.294 0.185 0.726 0.707 2.409 1.16 3.74 0.776 2.282 0.828 2.607 0.908 5.67 0.138 5.257-0.624 6.936-5.481 12.075-1.526 1.616-3.043 3.257-3.371 3.648-1.499 1.788-4.082 1.188-4.639-1.076-0.259-1.056 0.605-2.361 3.836-5.795 5.021-5.337 5.553-7.141 3.78-12.806-3.964-12.658-6.703-24.126-6.99-29.27l-0.139-2.471-0.688-0.129c-0.378-0.071-2.02-0.048-3.647 0.051l-2.959 0.18-0.37 2.971c-0.942 7.56-3.303 14.754-5.088 15.504-2.347 0.987-3.41-1.146-2.045-4.101 2.426-5.25 4.139-16.513 2.586-16.999-0.76-0.237-6.411-0.945-12.474-1.562-4.039-0.41-14.308-0.584-18.456-0.312m76.102 3.292c8.132 2.362 13.218 7.568 9.348 9.569-1.28 0.662-1.852 0.484-4.288-1.334-1.667-1.244-3.722-2.346-5.554-2.976l-1.157-0.398v0.75c0 2.24-1.569 4.357-3.502 4.724-4.157 0.788-6.879-0.393-7.408-3.216-0.217-1.156-0.432-1.102-2.02 0.508-2.351 2.383-3.028 2.677-4.458 1.937-2.019-1.043-1.709-3.234 0.813-5.754 4.35-4.346 11.344-5.808 18.226-3.81m-62.487 0.303c7.066 0.95 13.434 6.162 10.939 8.953-1.267 1.419-2.594 1.205-4.891-0.787-0.664-0.575-1.9-1.373-2.747-1.772l-1.54-0.727-0.15 1.282c-0.398 3.425-2.077 4.607-6.561 4.622-2.22 7e-3 -3.872-1.52-4.401-4.068-0.138-0.664-0.29-1.208-0.339-1.208-0.805 0-4.456 2.247-6.273 3.861-3.567 3.168-7-0.5-3.548-3.79 5.199-4.956 12.436-7.318 19.511-6.366m-48.514 4.755c-0.559 0.558-0.593 1.729-0.055 1.887 1.179 0.348 2.961 1.457 4.209 2.62 1.171 1.09 1.395 1.226 1.276 0.773-0.079-0.302-0.151-1.094-0.159-1.76l-0.016-1.21-1.53-1.375c-1.725-1.551-2.832-1.829-3.725-0.935m0.126 8.312c0.045 0.208 0.336 1.765 0.648 3.459s0.694 3.625 0.85 4.29l0.283 1.21 0.37-0.712c0.204-0.391 0.668-1.05 1.031-1.464l0.66-0.751-0.537-1.481c-0.788-2.169-3.638-6.094-3.305-4.551m3.695 20.236c0.06 0.211 0.321 1.474 0.58 2.805 0.605 3.122 1.152 5.079 1.738 6.229 0.537 1.052 1 1.233 0.811 0.316-0.068-0.332-0.273-1.793-0.455-3.245-0.686-5.487-0.708-5.568-1.667-6.057-1.042-0.531-1.147-0.536-1.007-0.048m66.146 11.971c4.26 1.762 5.416 3.549 3.568 5.518-0.983 1.047-1.68 1.01-4.617-0.251-1.438-0.617-2.806-1.122-3.038-1.123-1.78-6e-3 -2.856-2.398-1.791-3.982 1.018-1.515 2.506-1.556 5.878-0.162m-15.151 20.079c2.019 1.071 3.706 1.591 7.284 2.245 8.188 1.496 29.791 0.69 33.645-1.255 1.937-0.978 3.469-0.812 4.218 0.456 0.934 1.581 0.16 3.209-2.054 4.317-2.118 1.061-3.786 1.348-12.541 2.156-3.881 0.358-16.377 0.461-18.556 0.152-0.867-0.122-2.616-0.331-3.886-0.464-7.486-0.78-13.22-3.571-12.651-6.159 0.471-2.146 2.192-2.695 4.541-1.448m-33.348 22.955c-0.409 8.676-1.748 16.773-3.218 19.469-0.381 0.698-0.223 1.002 1.821 3.509 28.098 34.472 79.556 41.041 93.614 11.951l0.851-1.761-0.069-6.875c-0.044-4.446-0.147-6.876-0.291-6.876-0.525 0-7.224 2.541-10.766 4.083-4.299 1.872-6.288 2.622-7.591 2.861-0.484 0.089-1.672 0.497-2.64 0.905-8.108 3.422-23.819 4.006-34.328 1.275-4.827-1.254-9.702-4.028-13.305-7.569-0.545-0.537-1.378-1.309-1.849-1.715-0.472-0.407-2.7-2.501-4.951-4.654s-4.687-4.456-5.413-5.119c-3.234-2.951-8.527-8.654-10.687-11.515-0.505-0.668-0.941-1.214-0.971-1.214s-0.123 1.46-0.207 3.245" fill="white"/>
</g>
</svg>
