<svg width="800" height="400" viewBox="0 0 800 400" xmlns="http://www.w3.org/2000/svg"><mask id="satori_om-id"><rect x="0" y="0" width="800" height="400" fill="#fff"/></mask><rect x="0" y="0" width="800" height="400" fill="#171717"/><mask id="satori_om-id-0"><rect x="42" y="42" width="128" height="24" fill="#fff"/></mask><mask id="satori_om-id-0-0"><rect x="50" y="42" width="120" height="24" fill="#fff"/></mask><path fill="#d4d4d4" d="M50.6 50.5L53.7 50.5L55.7 54.3L57.8 50.5L60.9 50.5L57.7 55.9L61.0 61.4L57.9 61.4L55.7 57.6L53.6 61.4L50.5 61.4L53.7 55.9L50.6 50.5ZM61.8 50.5L64.9 50.5L66.9 54.3L68.9 50.5L72.1 50.5L68.9 55.9L72.1 61.4L69.0 61.4L66.9 57.6L64.8 61.4L61.7 61.4L64.9 55.9L61.8 50.5ZM78.0 61.6L78.0 61.6Q76.4 61.6 75.2 60.9Q74.0 60.2 73.3 58.9Q72.7 57.6 72.7 56.0L72.7 56.0Q72.7 54.3 73.3 53.0Q74.0 51.8 75.2 51.0Q76.4 50.3 78.0 50.3L78.0 50.3Q79.5 50.3 80.5 50.8Q81.6 51.4 82.2 52.3Q82.9 53.2 82.9 54.5L82.9 54.5L80.1 54.5Q79.9 53.7 79.4 53.2Q78.9 52.7 78.1 52.7L78.1 52.7Q77.4 52.7 76.9 53.1Q76.3 53.4 76.0 54.2Q75.8 54.9 75.8 55.9L75.8 55.9Q75.8 57.0 76.0 57.7Q76.3 58.4 76.9 58.8Q77.4 59.2 78.1 59.2L78.1 59.2Q78.6 59.2 79.0 59.0Q79.4 58.8 79.7 58.4Q80.0 58.0 80.1 57.4L80.1 57.4L82.9 57.4Q82.8 58.6 82.2 59.6Q81.6 60.5 80.6 61.1Q79.5 61.6 78.0 61.6ZM93.7 61.4L84.5 61.4L84.5 59.6L89.8 53.0L89.8 52.9L84.7 52.9L84.7 50.5L93.5 50.5L93.5 52.4L88.5 58.9L88.5 59.0L93.7 59.0L93.7 61.4ZM98.8 61.6L98.8 61.6Q97.7 61.6 96.9 61.2Q96.1 60.8 95.6 60.1Q95.1 59.4 95.1 58.3L95.1 58.3Q95.1 57.4 95.5 56.8Q95.8 56.2 96.4 55.8Q97.0 55.4 97.7 55.2Q98.4 55.0 99.2 55.0L99.2 55.0Q100.2 54.9 100.8 54.8Q101.4 54.7 101.6 54.5Q101.9 54.3 101.9 54.0L101.9 54.0L101.9 53.9Q101.9 53.3 101.5 52.9Q101.0 52.5 100.3 52.5L100.3 52.5Q99.5 52.5 99.0 52.9Q98.5 53.3 98.3 53.8L98.3 53.8L95.5 53.6Q95.7 52.6 96.4 51.8Q97.0 51.1 98.0 50.7Q99.0 50.3 100.3 50.3L100.3 50.3Q101.2 50.3 102.0 50.5Q102.9 50.8 103.5 51.2Q104.2 51.6 104.5 52.3Q104.9 53.0 104.9 54.0L104.9 54.0L104.9 61.4L102.0 61.4L102.0 59.9L102.0 59.9Q101.7 60.4 101.3 60.8Q100.8 61.1 100.2 61.4Q99.6 61.6 98.8 61.6ZM99.6 59.5L99.6 59.5Q100.3 59.5 100.8 59.2Q101.3 59.0 101.6 58.5Q101.9 58.1 101.9 57.5L101.9 57.5L101.9 56.3Q101.8 56.4 101.5 56.5Q101.3 56.6 101.0 56.6Q100.7 56.7 100.4 56.7Q100.1 56.8 99.8 56.8L99.8 56.8Q99.3 56.9 98.9 57.1Q98.5 57.2 98.3 57.5Q98.0 57.8 98.0 58.2L98.0 58.2Q98.0 58.8 98.5 59.2Q98.9 59.5 99.6 59.5ZM111.7 55.9L109.7 58.2L109.7 54.6L110.1 54.6L113.6 50.5L117.1 50.5L112.4 55.9L111.7 55.9ZM110.0 61.4L106.9 61.4L106.9 46.8L110.0 46.8L110.0 61.4ZM117.3 61.4L113.8 61.4L110.6 56.6L112.6 54.5L117.3 61.4ZM121.3 61.4L118.3 61.4L118.3 50.5L121.3 50.5L121.3 61.4ZM119.8 49.1L119.8 49.1Q119.1 49.1 118.6 48.6Q118.1 48.2 118.1 47.5L118.1 47.5Q118.1 46.9 118.6 46.4Q119.1 46.0 119.8 46.0L119.8 46.0Q120.5 46.0 120.9 46.4Q121.4 46.9 121.4 47.5L121.4 47.5Q121.4 48.2 120.9 48.6Q120.5 49.1 119.8 49.1ZM125.1 61.6L125.1 61.6Q124.4 61.6 123.9 61.1Q123.4 60.6 123.4 59.9L123.4 59.9Q123.4 59.2 123.9 58.7Q124.4 58.2 125.1 58.2L125.1 58.2Q125.8 58.2 126.3 58.7Q126.9 59.2 126.9 59.9L126.9 59.9Q126.9 60.3 126.6 60.7Q126.4 61.1 126.0 61.3Q125.6 61.6 125.1 61.6ZM133.9 61.6L133.9 61.6Q132.3 61.6 131.1 60.9Q129.9 60.2 129.2 58.9Q128.6 57.6 128.6 56.0L128.6 56.0Q128.6 54.3 129.2 53.0Q129.9 51.8 131.1 51.0Q132.3 50.3 133.9 50.3L133.9 50.3Q135.4 50.3 136.4 50.8Q137.5 51.4 138.1 52.3Q138.7 53.2 138.8 54.5L138.8 54.5L136.0 54.5Q135.8 53.7 135.3 53.2Q134.8 52.7 134.0 52.7L134.0 52.7Q133.3 52.7 132.7 53.1Q132.2 53.4 131.9 54.2Q131.6 54.9 131.6 55.9L131.6 55.9Q131.6 57.0 131.9 57.7Q132.2 58.4 132.7 58.8Q133.3 59.2 134.0 59.2L134.0 59.2Q134.5 59.2 134.9 59.0Q135.3 58.8 135.6 58.4Q135.9 58.0 136.0 57.4L136.0 57.4L138.8 57.4Q138.7 58.6 138.1 59.6Q137.5 60.5 136.5 61.1Q135.4 61.6 133.9 61.6ZM145.4 61.6L145.4 61.6Q143.7 61.6 142.5 60.9Q141.3 60.2 140.6 58.9Q140.0 57.6 140.0 56.0L140.0 56.0Q140.0 54.3 140.6 53.0Q141.3 51.7 142.5 51.0Q143.7 50.3 145.4 50.3L145.4 50.3Q147.0 50.3 148.2 51.0Q149.4 51.7 150.1 53.0Q150.7 54.3 150.7 56.0L150.7 56.0Q150.7 57.6 150.1 58.9Q149.4 60.2 148.2 60.9Q147.0 61.6 145.4 61.6ZM145.4 59.2L145.4 59.2Q146.1 59.2 146.6 58.8Q147.1 58.4 147.4 57.6Q147.7 56.9 147.7 55.9L147.7 55.9Q147.7 55.0 147.4 54.2Q147.1 53.5 146.6 53.1Q146.1 52.6 145.4 52.6L145.4 52.6Q144.6 52.6 144.1 53.1Q143.6 53.5 143.3 54.2Q143.1 55.0 143.1 55.9L143.1 55.9Q143.1 56.9 143.3 57.6Q143.6 58.4 144.1 58.8Q144.6 59.2 145.4 59.2ZM155.4 61.4L152.4 61.4L152.4 50.5L155.3 50.5L155.3 52.4L155.4 52.4Q155.7 51.4 156.5 50.9Q157.3 50.3 158.4 50.3L158.4 50.3Q159.6 50.3 160.4 50.9Q161.1 51.4 161.4 52.4L161.4 52.4L161.5 52.4Q161.8 51.5 162.7 50.9Q163.6 50.3 164.8 50.3L164.8 50.3Q166.3 50.3 167.3 51.3Q168.2 52.3 168.2 54.0L168.2 54.0L168.2 61.4L165.2 61.4L165.2 54.6Q165.2 53.7 164.7 53.3Q164.3 52.8 163.5 52.8L163.5 52.8Q162.7 52.8 162.2 53.3Q161.8 53.9 161.8 54.7L161.8 54.7L161.8 61.4L158.9 61.4L158.9 54.6Q158.9 53.8 158.4 53.3Q157.9 52.8 157.2 52.8L157.2 52.8Q156.7 52.8 156.3 53.1Q155.9 53.3 155.6 53.8Q155.4 54.2 155.4 54.8L155.4 54.8L155.4 61.4Z "/><mask id="satori_om-id-1"><rect x="87" y="166" width="626" height="69" fill="#fff"/></mask><path fill="#d4d4d4" d="M104.6 213.2L99.2 213.2L99.2 187.8L109.3 187.8Q112.2 187.8 114.2 188.9Q116.2 190.0 117.3 191.9Q118.4 193.9 118.4 196.4L118.4 196.4Q118.4 198.9 117.3 200.9Q116.2 202.8 114.1 203.9Q112.1 205.0 109.1 205.0L109.1 205.0L102.7 205.0L102.7 200.7L108.2 200.7Q109.8 200.7 110.8 200.1Q111.8 199.6 112.3 198.6Q112.8 197.7 112.8 196.4L112.8 196.4Q112.8 195.1 112.3 194.2Q111.8 193.2 110.8 192.7Q109.8 192.2 108.2 192.2L108.2 192.2L104.6 192.2L104.6 213.2ZM129.8 213.6L129.8 213.6Q126.9 213.6 124.8 212.4Q122.7 211.2 121.5 209.0Q120.4 206.8 120.4 203.8L120.4 203.8Q120.4 200.8 121.5 198.6Q122.7 196.4 124.7 195.1Q126.8 193.9 129.6 193.9L129.6 193.9Q131.5 193.9 133.2 194.5Q134.8 195.1 136.0 196.3Q137.2 197.5 137.9 199.3Q138.6 201.1 138.6 203.6L138.6 203.6L138.6 205.0L122.5 205.0L122.5 201.8L133.6 201.8Q133.6 200.6 133.1 199.7Q132.6 198.8 131.7 198.3Q130.9 197.8 129.7 197.8L129.7 197.8Q128.5 197.8 127.6 198.4Q126.7 198.9 126.1 199.9Q125.6 200.8 125.6 201.9L125.6 201.9L125.6 205.0Q125.6 206.5 126.1 207.5Q126.7 208.5 127.6 209.1Q128.6 209.6 129.9 209.6L129.9 209.6Q130.8 209.6 131.5 209.4Q132.3 209.2 132.8 208.7Q133.3 208.2 133.6 207.4L133.6 207.4L138.5 207.8Q138.1 209.5 137.0 210.8Q135.8 212.1 134.0 212.9Q132.2 213.6 129.8 213.6ZM147.0 213.2L141.7 213.2L141.7 194.1L146.9 194.1L146.9 197.5L147.1 197.5Q147.6 195.7 148.8 194.8Q150.1 193.9 151.7 193.9L151.7 193.9Q152.1 193.9 152.5 193.9Q153.0 194.0 153.3 194.0L153.3 194.0L153.3 198.7Q152.9 198.6 152.3 198.5Q151.6 198.5 151.1 198.5L151.1 198.5Q149.9 198.5 149.0 199.0Q148.1 199.5 147.6 200.4Q147.0 201.3 147.0 202.4L147.0 202.4L147.0 213.2ZM171.6 199.6L171.6 199.6L166.8 199.9Q166.6 199.3 166.2 198.8Q165.8 198.3 165.2 197.9Q164.5 197.6 163.6 197.6L163.6 197.6Q162.3 197.6 161.5 198.2Q160.6 198.7 160.6 199.5L160.6 199.5Q160.6 200.2 161.2 200.7Q161.7 201.2 163.1 201.4L163.1 201.4L166.5 202.1Q169.3 202.7 170.7 204.0Q172.0 205.2 172.0 207.3L172.0 207.3Q172.0 209.2 170.9 210.6Q169.8 212.0 167.9 212.8Q166.0 213.6 163.5 213.6L163.5 213.6Q159.8 213.6 157.5 212.0Q155.3 210.4 154.9 207.7L154.9 207.7L160.1 207.4Q160.3 208.6 161.2 209.2Q162.1 209.8 163.6 209.8L163.6 209.8Q164.9 209.8 165.8 209.2Q166.6 208.7 166.7 207.8L166.7 207.8Q166.6 207.1 166.1 206.7Q165.5 206.2 164.2 205.9L164.2 205.9L160.9 205.3Q158.1 204.7 156.7 203.3Q155.4 202.0 155.4 199.8L155.4 199.8Q155.4 198.0 156.4 196.7Q157.4 195.3 159.2 194.6Q161.0 193.9 163.5 193.9L163.5 193.9Q167.1 193.9 169.2 195.4Q171.3 196.9 171.6 199.6ZM183.7 213.6L183.7 213.6Q180.8 213.6 178.7 212.4Q176.6 211.1 175.4 208.9Q174.3 206.7 174.3 203.8L174.3 203.8Q174.3 200.8 175.4 198.6Q176.6 196.4 178.7 195.1Q180.8 193.9 183.7 193.9L183.7 193.9Q186.6 193.9 188.7 195.1Q190.8 196.4 191.9 198.6Q193.1 200.8 193.1 203.8L193.1 203.8Q193.1 206.7 191.9 208.9Q190.8 211.1 188.7 212.4Q186.6 213.6 183.7 213.6ZM183.7 209.5L183.7 209.5Q185.0 209.5 185.9 208.7Q186.8 208.0 187.3 206.7Q187.7 205.4 187.7 203.7L187.7 203.7Q187.7 202.1 187.3 200.7Q186.8 199.4 185.9 198.7Q185.0 197.9 183.7 197.9L183.7 197.9Q182.4 197.9 181.5 198.7Q180.6 199.4 180.1 200.7Q179.7 202.1 179.7 203.7L179.7 203.7Q179.7 205.4 180.1 206.7Q180.6 208.0 181.5 208.7Q182.4 209.5 183.7 209.5ZM201.5 202.2L201.5 202.2L201.5 213.2L196.2 213.2L196.2 194.1L201.3 194.1L201.3 197.5L201.5 197.5Q202.1 195.8 203.6 194.9Q205.1 193.9 207.2 193.9L207.2 193.9Q209.2 193.9 210.7 194.8Q212.2 195.6 213.0 197.2Q213.8 198.8 213.8 201.1L213.8 201.1L213.8 213.2L208.5 213.2L208.5 202.0Q208.5 200.3 207.6 199.3Q206.7 198.3 205.1 198.3L205.1 198.3Q204.1 198.3 203.3 198.7Q202.4 199.2 202.0 200.1Q201.5 201.0 201.5 202.2ZM223.1 213.6L223.1 213.6Q221.3 213.6 219.9 212.9Q218.4 212.3 217.6 211.0Q216.8 209.8 216.8 207.9L216.8 207.9Q216.8 206.3 217.4 205.2Q217.9 204.1 218.9 203.5Q220.0 202.8 221.2 202.5Q222.5 202.2 223.9 202.0L223.9 202.0Q225.6 201.8 226.6 201.7Q227.6 201.5 228.1 201.2Q228.6 200.9 228.6 200.3L228.6 200.3L228.6 200.2Q228.6 199.0 227.8 198.4Q227.1 197.8 225.7 197.8L225.7 197.8Q224.3 197.8 223.5 198.4Q222.6 199.0 222.3 200.0L222.3 200.0L217.4 199.6Q217.8 197.8 218.9 196.5Q220.0 195.3 221.7 194.6Q223.5 193.9 225.8 193.9L225.8 193.9Q227.3 193.9 228.8 194.3Q230.3 194.6 231.4 195.4Q232.5 196.2 233.2 197.4Q233.9 198.6 233.9 200.4L233.9 200.4L233.9 213.2L228.8 213.2L228.8 210.6L228.7 210.6Q228.2 211.5 227.5 212.2Q226.7 212.8 225.6 213.2Q224.5 213.6 223.1 213.6ZM224.6 209.9L224.6 209.9Q225.8 209.9 226.7 209.5Q227.6 209.0 228.1 208.2Q228.6 207.4 228.6 206.4L228.6 206.4L228.6 204.4Q228.4 204.5 227.9 204.7Q227.5 204.8 227.0 204.9Q226.4 205.0 225.9 205.1Q225.4 205.2 224.9 205.2L224.9 205.2Q224.0 205.4 223.3 205.7Q222.6 206.0 222.2 206.5Q221.8 207.0 221.8 207.7L221.8 207.7Q221.8 208.8 222.6 209.4Q223.4 209.9 224.6 209.9ZM237.7 187.8L243.0 187.8L243.0 213.2L237.7 213.2L237.7 187.8Z M264.3 213.2L258.7 213.2L253.5 194.1L258.9 194.1L261.9 207.0L262.0 207.0L265.1 194.1L270.4 194.1L273.5 206.9L273.7 206.9L276.6 194.1L281.9 194.1L276.7 213.2L271.1 213.2L267.9 201.2L267.6 201.2L264.3 213.2ZM292.6 213.6L292.6 213.6Q289.7 213.6 287.6 212.4Q285.5 211.2 284.3 209.0Q283.2 206.8 283.2 203.8L283.2 203.8Q283.2 200.8 284.3 198.6Q285.5 196.4 287.5 195.1Q289.6 193.9 292.4 193.9L292.4 193.9Q294.3 193.9 296.0 194.5Q297.6 195.1 298.8 196.3Q300.0 197.5 300.7 199.3Q301.4 201.1 301.4 203.6L301.4 203.6L301.4 205.0L285.3 205.0L285.3 201.8L296.4 201.8Q296.4 200.6 295.9 199.7Q295.4 198.8 294.5 198.3Q293.7 197.8 292.5 197.8L292.5 197.8Q291.3 197.8 290.4 198.4Q289.5 198.9 288.9 199.9Q288.4 200.8 288.4 201.9L288.4 201.9L288.4 205.0Q288.4 206.5 288.9 207.5Q289.5 208.5 290.4 209.1Q291.4 209.6 292.7 209.6L292.7 209.6Q293.6 209.6 294.3 209.4Q295.1 209.2 295.6 208.7Q296.1 208.2 296.4 207.4L296.4 207.4L301.3 207.8Q300.9 209.5 299.8 210.8Q298.6 212.1 296.8 212.9Q295.0 213.6 292.6 213.6ZM309.9 213.2L304.6 213.2L304.6 187.8L309.9 187.8L309.9 197.3L310.1 197.3Q310.4 196.6 311.1 195.8Q311.8 195.0 312.8 194.4Q313.9 193.9 315.5 193.9L315.5 193.9Q317.6 193.9 319.4 195.0Q321.1 196.1 322.2 198.2Q323.3 200.4 323.3 203.7L323.3 203.7Q323.3 206.9 322.2 209.1Q321.2 211.3 319.4 212.4Q317.7 213.5 315.5 213.5L315.5 213.5Q314.0 213.5 312.9 213.0Q311.8 212.5 311.1 211.7Q310.5 211.0 310.1 210.2L310.1 210.2L309.9 210.2L309.9 213.2ZM309.8 203.7L309.8 203.7Q309.8 205.4 310.3 206.7Q310.8 207.9 311.7 208.6Q312.6 209.3 313.8 209.3L313.8 209.3Q315.1 209.3 316.0 208.6Q316.9 207.9 317.4 206.6Q317.8 205.3 317.8 203.7L317.8 203.7Q317.8 202.0 317.4 200.8Q316.9 199.5 316.0 198.8Q315.1 198.1 313.8 198.1L313.8 198.1Q312.5 198.1 311.7 198.8Q310.8 199.5 310.3 200.7Q309.8 202.0 309.8 203.7ZM342.3 199.6L342.3 199.6L337.5 199.9Q337.4 199.3 337.0 198.8Q336.5 198.3 335.9 197.9Q335.2 197.6 334.3 197.6L334.3 197.6Q333.1 197.6 332.2 198.2Q331.4 198.7 331.4 199.5L331.4 199.5Q331.4 200.2 331.9 200.7Q332.5 201.2 333.8 201.4L333.8 201.4L337.3 202.1Q340.0 202.7 341.4 204.0Q342.8 205.2 342.8 207.3L342.8 207.3Q342.8 209.2 341.7 210.6Q340.6 212.0 338.7 212.8Q336.8 213.6 334.3 213.6L334.3 213.6Q330.5 213.6 328.2 212.0Q326.0 210.4 325.6 207.7L325.6 207.7L330.8 207.4Q331.1 208.6 332.0 209.2Q332.9 209.8 334.3 209.8L334.3 209.8Q335.7 209.8 336.5 209.2Q337.4 208.7 337.4 207.8L337.4 207.8Q337.4 207.1 336.8 206.7Q336.2 206.2 334.9 205.9L334.9 205.9L331.6 205.3Q328.8 204.7 327.5 203.3Q326.1 202.0 326.1 199.8L326.1 199.8Q326.1 198.0 327.1 196.7Q328.1 195.3 329.9 194.6Q331.8 193.9 334.2 193.9L334.2 193.9Q337.8 193.9 339.9 195.4Q342.0 196.9 342.3 199.6ZM351.1 213.2L345.8 213.2L345.8 194.1L351.1 194.1L351.1 213.2ZM348.5 191.7L348.5 191.7Q347.3 191.7 346.4 190.9Q345.6 190.1 345.6 189.0L345.6 189.0Q345.6 187.9 346.4 187.1Q347.3 186.3 348.5 186.3L348.5 186.3Q349.6 186.3 350.5 187.1Q351.3 187.9 351.3 189.0L351.3 189.0Q351.3 190.1 350.5 190.9Q349.6 191.7 348.5 191.7ZM353.7 194.1L365.1 194.1L365.1 198.1L353.7 198.1L353.7 194.1ZM356.3 208.1L356.3 189.6L361.6 189.6L361.6 207.4Q361.6 208.1 361.8 208.5Q362.0 208.9 362.4 209.1Q362.8 209.2 363.3 209.2L363.3 209.2Q363.7 209.2 364.1 209.2Q364.5 209.1 364.7 209.1L364.7 209.1L365.5 213.0Q365.1 213.1 364.4 213.3Q363.7 213.5 362.6 213.5L362.6 213.5Q360.7 213.6 359.3 213.0Q357.8 212.4 357.0 211.2Q356.3 209.9 356.3 208.1L356.3 208.1ZM376.8 213.6L376.8 213.6Q373.8 213.6 371.7 212.4Q369.6 211.2 368.4 209.0Q367.3 206.8 367.3 203.8L367.3 203.8Q367.3 200.8 368.4 198.6Q369.6 196.4 371.7 195.1Q373.8 193.9 376.6 193.9L376.6 193.9Q378.5 193.9 380.1 194.5Q381.7 195.1 382.9 196.3Q384.2 197.5 384.9 199.3Q385.5 201.1 385.5 203.6L385.5 203.6L385.5 205.0L369.4 205.0L369.4 201.8L380.6 201.8Q380.6 200.6 380.1 199.7Q379.6 198.8 378.7 198.3Q377.8 197.8 376.6 197.8L376.6 197.8Q375.4 197.8 374.5 198.4Q373.6 198.9 373.1 199.9Q372.5 200.8 372.5 201.9L372.5 201.9L372.5 205.0Q372.5 206.5 373.1 207.5Q373.6 208.5 374.6 209.1Q375.5 209.6 376.9 209.6L376.9 209.6Q377.7 209.6 378.5 209.4Q379.2 209.2 379.7 208.7Q380.3 208.2 380.5 207.4L380.5 207.4L385.4 207.8Q385.1 209.5 383.9 210.8Q382.8 212.1 380.9 212.9Q379.1 213.6 376.8 213.6Z M405.8 213.6L405.8 213.6Q402.9 213.6 400.8 212.4Q398.7 211.1 397.5 208.9Q396.4 206.7 396.4 203.8L396.4 203.8Q396.4 200.8 397.5 198.6Q398.7 196.4 400.8 195.1Q402.9 193.9 405.8 193.9L405.8 193.9Q408.7 193.9 410.8 195.1Q412.9 196.4 414.0 198.6Q415.2 200.8 415.2 203.8L415.2 203.8Q415.2 206.7 414.0 208.9Q412.9 211.1 410.8 212.4Q408.7 213.6 405.8 213.6ZM405.8 209.5L405.8 209.5Q407.1 209.5 408.0 208.7Q408.9 208.0 409.3 206.7Q409.8 205.4 409.8 203.7L409.8 203.7Q409.8 202.1 409.3 200.7Q408.9 199.4 408.0 198.7Q407.1 197.9 405.8 197.9L405.8 197.9Q404.5 197.9 403.6 198.7Q402.7 199.4 402.2 200.7Q401.7 202.1 401.7 203.7L401.7 203.7Q401.7 205.4 402.2 206.7Q402.7 208.0 403.6 208.7Q404.5 209.5 405.8 209.5ZM416.8 194.1L428.6 194.1L428.6 198.1L416.8 198.1L416.8 194.1ZM424.8 213.2L419.5 213.2L419.5 192.8Q419.5 190.7 420.3 189.3Q421.1 187.9 422.5 187.3Q423.9 186.6 425.7 186.6L425.7 186.6Q427.0 186.6 428.0 186.8Q429.0 187.0 429.5 187.1L429.5 187.1L428.5 191.1Q428.2 191.0 427.8 190.9Q427.3 190.8 426.8 190.8L426.8 190.8Q425.7 190.8 425.2 191.3Q424.8 191.9 424.8 192.9L424.8 192.9L424.8 213.2Z M450.1 193.6L443.8 213.2L438.0 213.2L446.8 187.8L453.7 187.8L462.5 213.2L456.7 213.2L450.3 193.6L450.1 193.6ZM443.4 207.4L443.4 203.2L457.0 203.2L457.0 207.4L443.4 207.4ZM470.4 202.2L470.4 202.2L470.4 213.2L465.1 213.2L465.1 194.1L470.2 194.1L470.2 197.5L470.4 197.5Q471.0 195.8 472.5 194.9Q474.0 193.9 476.1 193.9L476.1 193.9Q478.1 193.9 479.6 194.8Q481.1 195.6 481.9 197.2Q482.7 198.8 482.7 201.1L482.7 201.1L482.7 213.2L477.4 213.2L477.4 202.0Q477.4 200.3 476.5 199.3Q475.6 198.3 474.0 198.3L474.0 198.3Q473.0 198.3 472.2 198.7Q471.3 199.2 470.9 200.1Q470.4 201.0 470.4 202.2ZM485.2 194.1L496.7 194.1L496.7 198.1L485.2 198.1L485.2 194.1ZM487.8 208.1L487.8 189.6L493.1 189.6L493.1 207.4Q493.1 208.1 493.4 208.5Q493.6 208.9 494.0 209.1Q494.4 209.2 494.9 209.2L494.9 209.2Q495.3 209.2 495.7 209.2Q496.0 209.1 496.2 209.1L496.2 209.1L497.1 213.0Q496.7 213.1 496.0 213.3Q495.2 213.5 494.2 213.5L494.2 213.5Q492.3 213.6 490.9 213.0Q489.4 212.4 488.6 211.2Q487.8 209.9 487.8 208.1L487.8 208.1ZM508.3 213.6L508.3 213.6Q505.4 213.6 503.3 212.4Q501.2 211.1 500.0 208.9Q498.9 206.7 498.9 203.8L498.9 203.8Q498.9 200.8 500.0 198.6Q501.2 196.4 503.3 195.1Q505.4 193.9 508.3 193.9L508.3 193.9Q511.2 193.9 513.3 195.1Q515.4 196.4 516.5 198.6Q517.7 200.8 517.7 203.8L517.7 203.8Q517.7 206.7 516.5 208.9Q515.4 211.1 513.3 212.4Q511.2 213.6 508.3 213.6ZM508.3 209.5L508.3 209.5Q509.6 209.5 510.5 208.7Q511.4 208.0 511.8 206.7Q512.3 205.4 512.3 203.7L512.3 203.7Q512.3 202.1 511.8 200.7Q511.4 199.4 510.5 198.7Q509.6 197.9 508.3 197.9L508.3 197.9Q507.0 197.9 506.1 198.7Q505.2 199.4 504.7 200.7Q504.3 202.1 504.3 203.7L504.3 203.7Q504.3 205.4 504.7 206.7Q505.2 208.0 506.1 208.7Q507.0 209.5 508.3 209.5ZM526.1 202.2L526.1 202.2L526.1 213.2L520.8 213.2L520.8 194.1L525.9 194.1L525.9 197.5L526.1 197.5Q526.7 195.8 528.2 194.9Q529.7 193.9 531.8 193.9L531.8 193.9Q533.8 193.9 535.3 194.8Q536.8 195.6 537.6 197.2Q538.4 198.8 538.4 201.1L538.4 201.1L538.4 213.2L533.1 213.2L533.1 202.0Q533.1 200.3 532.2 199.3Q531.3 198.3 529.7 198.3L529.7 198.3Q528.6 198.3 527.8 198.7Q527.0 199.2 526.6 200.1Q526.1 201.0 526.1 202.2ZM547.5 213.2L542.2 213.2L542.2 194.1L547.5 194.1L547.5 213.2ZM544.9 191.7L544.9 191.7Q543.7 191.7 542.9 190.9Q542.0 190.1 542.0 189.0L542.0 189.0Q542.0 187.9 542.9 187.1Q543.7 186.3 544.9 186.3L544.9 186.3Q546.1 186.3 546.9 187.1Q547.8 187.9 547.8 189.0L547.8 189.0Q547.8 190.1 546.9 190.9Q546.1 191.7 544.9 191.7Z M564.9 213.2L559.5 213.2L559.5 187.8L564.9 187.8L564.9 199.0L565.3 199.0L574.4 187.8L580.9 187.8L571.4 199.2L581.0 213.2L574.5 213.2L567.6 202.8L564.9 206.0L564.9 213.2ZM590.6 213.6L590.6 213.6Q587.6 213.6 585.5 212.4Q583.4 211.2 582.2 209.0Q581.1 206.8 581.1 203.8L581.1 203.8Q581.1 200.8 582.2 198.6Q583.4 196.4 585.5 195.1Q587.5 193.9 590.4 193.9L590.4 193.9Q592.2 193.9 593.9 194.5Q595.5 195.1 596.7 196.3Q598.0 197.5 598.6 199.3Q599.3 201.1 599.3 203.6L599.3 203.6L599.3 205.0L583.2 205.0L583.2 201.8L594.3 201.8Q594.3 200.6 593.8 199.7Q593.4 198.8 592.5 198.3Q591.6 197.8 590.4 197.8L590.4 197.8Q589.2 197.8 588.3 198.4Q587.4 198.9 586.9 199.9Q586.3 200.8 586.3 201.9L586.3 201.9L586.3 205.0Q586.3 206.5 586.9 207.5Q587.4 208.5 588.4 209.1Q589.3 209.6 590.7 209.6L590.7 209.6Q591.5 209.6 592.3 209.4Q593.0 209.2 593.5 208.7Q594.0 208.2 594.3 207.4L594.3 207.4L599.2 207.8Q598.8 209.5 597.7 210.8Q596.5 212.1 594.7 212.9Q592.9 213.6 590.6 213.6ZM592.4 219.9L592.4 219.9Q590.7 219.9 589.6 219.0Q588.5 218.1 588.2 216.6L588.2 216.6Q588.0 215.6 588.3 214.5Q588.5 213.5 589.1 212.6Q589.8 211.8 590.9 211.3L590.9 211.3L594.8 212.7Q593.7 213.3 592.9 213.9Q592.2 214.5 592.2 215.4L592.2 215.4Q592.2 216.0 592.5 216.3Q592.8 216.7 593.4 216.7L593.4 216.7Q593.8 216.7 594.1 216.6Q594.4 216.5 594.7 216.4L594.7 216.4L595.2 219.1Q594.8 219.4 594.1 219.6Q593.3 219.9 592.4 219.9ZM607.8 220.4L602.5 220.4L602.5 194.1L607.7 194.1L607.7 197.3L607.9 197.3Q608.3 196.6 608.9 195.8Q609.6 195.0 610.7 194.4Q611.8 193.9 613.4 193.9L613.4 193.9Q615.4 193.9 617.2 195.0Q619.0 196.1 620.0 198.2Q621.1 200.4 621.1 203.7L621.1 203.7Q621.1 206.9 620.1 209.1Q619.0 211.3 617.3 212.4Q615.5 213.5 613.3 213.5L613.3 213.5Q611.8 213.5 610.7 213.0Q609.7 212.5 609.0 211.7Q608.3 211.0 607.9 210.2L607.9 210.2L607.8 210.2L607.8 220.4ZM607.6 203.7L607.6 203.7Q607.6 205.4 608.1 206.7Q608.6 207.9 609.5 208.6Q610.4 209.3 611.7 209.3L611.7 209.3Q613.0 209.3 613.9 208.6Q614.7 207.9 615.2 206.6Q615.7 205.3 615.7 203.7L615.7 203.7Q615.7 202.0 615.2 200.8Q614.8 199.5 613.9 198.8Q613.0 198.1 611.7 198.1L611.7 198.1Q610.4 198.1 609.5 198.8Q608.6 199.5 608.1 200.7Q607.6 202.0 607.6 203.7ZM629.6 213.2L624.3 213.2L624.3 194.1L629.6 194.1L629.6 213.2ZM626.9 191.7L626.9 191.7Q625.8 191.7 624.9 190.9Q624.1 190.1 624.1 189.0L624.1 189.0Q624.1 187.9 624.9 187.1Q625.8 186.3 626.9 186.3L626.9 186.3Q628.1 186.3 629.0 187.1Q629.8 187.9 629.8 189.0L629.8 189.0Q629.8 190.1 629.0 190.9Q628.1 191.7 626.9 191.7ZM638.8 202.2L638.8 202.2L638.8 213.2L633.5 213.2L633.5 194.1L638.5 194.1L638.5 197.5L638.8 197.5Q639.4 195.8 640.9 194.9Q642.4 193.9 644.5 193.9L644.5 193.9Q646.5 193.9 648.0 194.8Q649.4 195.6 650.3 197.2Q651.1 198.8 651.1 201.1L651.1 201.1L651.1 213.2L645.8 213.2L645.8 202.0Q645.8 200.3 644.9 199.3Q644.0 198.3 642.4 198.3L642.4 198.3Q641.3 198.3 640.5 198.7Q639.7 199.2 639.2 200.1Q638.8 201.0 638.8 202.2ZM644.1 191.7L640.4 191.7L643.0 186.0L647.9 186.0L644.1 191.7ZM670.8 199.6L670.8 199.6L666.0 199.9Q665.8 199.3 665.4 198.8Q665.0 198.3 664.4 197.9Q663.7 197.6 662.8 197.6L662.8 197.6Q661.5 197.6 660.7 198.2Q659.8 198.7 659.8 199.5L659.8 199.5Q659.8 200.2 660.4 200.7Q660.9 201.2 662.3 201.4L662.3 201.4L665.7 202.1Q668.5 202.7 669.9 204.0Q671.2 205.2 671.2 207.3L671.2 207.3Q671.2 209.2 670.1 210.6Q669.0 212.0 667.1 212.8Q665.2 213.6 662.7 213.6L662.7 213.6Q659.0 213.6 656.7 212.0Q654.5 210.4 654.1 207.7L654.1 207.7L659.3 207.4Q659.5 208.6 660.4 209.2Q661.3 209.8 662.8 209.8L662.8 209.8Q664.1 209.8 665.0 209.2Q665.9 208.7 665.9 207.8L665.9 207.8Q665.9 207.1 665.3 206.7Q664.7 206.2 663.4 205.9L663.4 205.9L660.1 205.3Q657.3 204.7 656.0 203.3Q654.6 202.0 654.6 199.8L654.6 199.8Q654.6 198.0 655.6 196.7Q656.6 195.3 658.4 194.6Q660.2 193.9 662.7 193.9L662.7 193.9Q666.3 193.9 668.4 195.4Q670.5 196.9 670.8 199.6ZM682.6 203.7L679.1 207.7L679.1 201.4L679.8 201.4L686.0 194.1L692.0 194.1L683.8 203.7L682.6 203.7ZM679.6 213.2L674.3 213.2L674.3 187.8L679.6 187.8L679.6 213.2ZM692.4 213.2L686.2 213.2L680.6 204.9L684.1 201.2L692.4 213.2ZM699.6 213.2L694.3 213.2L694.3 194.1L699.6 194.1L699.6 213.2ZM697.0 191.7L697.0 191.7Q695.8 191.7 694.9 190.9Q694.1 190.1 694.1 189.0L694.1 189.0Q694.1 187.9 694.9 187.1Q695.8 186.3 697.0 186.3L697.0 186.3Q698.1 186.3 699.0 187.1Q699.8 187.9 699.8 189.0L699.8 189.0Q699.8 190.1 699.0 190.9Q698.1 191.7 697.0 191.7Z "/></svg>