<svg xmlns="http://www.w3.org/2000/svg" width="400" height="200"><g fill-rule="evenodd"><path fill="transparent" d="M0 103.1v103.2h400V0H0v103.1m104-45.8c0 1.3 0 1.6-.5 2.5-.3.5-.6 1.3-.6 1.7 0 1-1 3.4-1.6 4.3-.5.5-.6.8-.7 2.7-.2 2.9-.4 3.8-1 4.5-.3.6-.4.9-.3 2.4 0 1.3-.1 2-.5 2.9-.3 1-.4 1.3-.2 1.8.2.4.2.7-.1 1.2-.3.6-.4 1.3-.4 3.9 0 2.8-.1 3.4-.6 4.8-.3 1.1-.5 2.4-.6 3.7a7.9 7.9 0 0 1-.7 3.1 5 5 0 0 0-.5 2.2c.2 2 0 3-.7 5.9-1 4-1 4.9 0 5.3.7.4 1.2 1.4.8 1.5-2.2.8-4.4 5.8-3.2 7 .5.5.2 1.9-.3 2-.8 0-.9.8-.2 1.3.6.5.6.8.2 1.6-.3.5-.3.6 0 1.3.3.5.5 1.2.5 1.9 0 2.2 1.4 3.5 2.5 2.3a31 31 0 0 0 2.9-4c0-.8 4.2-6.6 5.8-8 2.2-2 4.7-2.7 5.6-1.6 1.1 1.2 0 12.5-1.3 14.3-.6.7-.8 1.3-.7 1.7.2.5.7.4.8-.1a51.3 51.3 0 0 0 2.5-4.6l1.5-2.5c.4-.5 1-1.3 1.2-1.8 1.5-2.9 5-5 5-3l.2 1.4c.2.5.1 1.3-.2 3.2-1.3 8.3-1 10.8 1.4 10.8.5 0 1.7-1.3 2-2.2l1.4-2.8c.6-1 1.3-2.5 1.5-3.3l.9-1.9 1.5-3.2a82.2 82.2 0 0 1 3-7c0-.4.4-1.2.7-1.9.4-.6 1-2 1.5-3.3l1.3-3.2c.7-1.4 1.5-3.5 1.9-4.7l1.6-5.3a5 5 0 0 0 .3-1.7v-1h-.9l-2.2-.3c-4.5-.4-5.1-2.3-1.2-3.6l1.1.1c.5.2 1.6.4 2.6.4 2.1.2 2 .4 2.7-2.7a66.4 66.4 0 0 1 2-7.3c1.1-4.6 1.9-6 3.7-6.7 1-.3 1.3 0 1.3 1.1 0 .4 0 1 .2 1.1.2.4 0 1-1.1 3.3-2 4.2-4 11-3.3 11.4.4.2 4 .7 8.9 1.1 1.8.2 2.2.4 2 1.2-.3 1-.6 1-3 1-9 .2-9 .2-9.5.5a33 33 0 0 0-3.1 11.3 7 7 0 0 1-.3 2c-.2.5-.4 1.7-.4 3a15 15 0 0 1-.5 3.5c-.5 1.7-.9 6.5-.8 10a58.6 58.6 0 0 0-.3 13.3c.2.7 1 1 1.1.4.3-1 .5-2 .5-3.3 0-1.7.4-3.6.8-4.4 3-5.8 6.7-8.3 11.6-8 3.2.1 4.7 3 3.6 7-.6 2-.2 2.7.7 1.1a33.7 33.7 0 0 1 7.7-7.5c2.3-.6 2.6-.1 2.4 4.2-.1 3.6 0 3.8 1.1 2.7.7-.7 1-.8 2.1-.9l1.4-.1.5 1 1 2.7c1 3.6 1.3 4 2.2 2.7.6-.8 2.5-4 2.5-4.3 0-.2 1-1.2 1.8-1.7 1.4-.9 2.5-.1 3.3 2.5.4 1.5.6 1.9 1.3 2.4 1.7 1.4 0 4-2 3l-1.3-.5c-.4-.1-.6-.3-.6-.5 0-.5-.6-1.3-1-1.3 0 0-.6.7-1 1.6-2.8 4.7-6 3.9-8-2-.7-2-1.2-2.4-2-1.3-1.3 2-4 1.2-4.8-1.3-.3-1-.3-1.2 0-2 .7-2.5-.3-3.1-1.4-.9a3 3 0 0 1-1.2 1.5c-.4.2-1 .9-1.4 1.4-1.6 2.6-2 2.8-4.1 2.5l-.9-.2-1.8 1.8c-2.4 2.3-4.2 3.1-6.4 3-1 0-1.6.1-2 .4-.6.4-2 .2-3.2-.4-1.2-.6-1.6-.5-1.6.6 0 .6-.8 1-1.4.6-1.3-.6-1.8-3.3-1.6-9.7l.1-6.3.4-5.7c.6-5.9.7-6.5.4-6.8-.2-.2-1.6 2.6-1.8 3.7 0 .3-.4 1.2-.8 2s-.7 1.7-.7 2.1c0 .6-.2 1-.7 1.4-.9.8-1.2 1.5-1.4 3.4a5.5 5.5 0 0 1-1.7 3.8c-.9 1-1 1.1-1 2.2s-.6 2.5-3 6.6c-1.4 2.3-3 2.6-5.3 1l-1-.5c-2.1 0-2.5-8.3-.7-12.1 1.4-3 .8-4-.8-1.6l-1.5 2c-.9 1-1.1 1.4-.8 2 .2.9-.8 3.1-2.5 5.2l-.4.8a10 10 0 0 1-1.6 3 6 6 0 0 0-.9 1.2c-.5.8-.5.8-1.5.6-1.8-.2-2-1.1-1-4.8l.6-3.4.4-2.8c1.2-6.4 1.4-8.2 1-8.4-.5-.2-3.5 3-4.4 4.5-.8 1.3-1.4 2-2.4 2.6-.4.2-1 .8-1.3 1.2a32.3 32.3 0 0 1-4.6 5c-1 .4-3 0-3.7-1-1-1-1.6-4.3-1.4-6.6l.2-3.3a40 40 0 0 1 .9-7l.1-1.2-2.7-.2c-5.8-.6-10.7-.5-11 .1a3570 3570 0 0 1-6.1 13.1c0 .3-.2.7-.5.9a46 46 0 0 1-2.1 3.3c-.8 1.2-1 1.5-.9 2.3.1.8.1.9-.9 1.7-1.2 1-1.7 2-1.4 2.6a2 2 0 0 1-.2 2c-.3.2-1 1.2-1.6 2-1.8 2.9-3.3 4-4.7 3.6-1.1-.3-.7-2 .7-3.2 1-.7 2.2-2.3 2.8-3.6l.8-1.4 1.7-2.8a193.7 193.7 0 0 1 5.8-11.5l1.1-2.4c1.2-1.8 3.7-7 3.8-8.2.2-1.4.4-1.8 1.1-2.2.8-.4 2-2.4 3.4-5.2a45.4 45.4 0 0 1 3.2-6.3c.5-.7 1-1.7 1.2-2.2l1.8-3.8a64.8 64.8 0 0 0 3.3-6.8A155.7 155.7 0 0 0 95 72.8a70 70 0 0 0 5.6-13.6c.7-2.8.7-2.8 1.6-3.2 1.4-.6 1.6-.4 1.6 1.3M236 64a27 27 0 0 1 2.8 3.4c.7 1.1 1.3 1.5 3 2.2l1.4.6 2.1-.5c2.5-.5 4.1-1.3 5.5-2.6 1.5-1.5 3.6-2 4.2-1 .3.5.2 2.2-.2 3-.3.5-.7 1.7-1 2.7l-1 2.6c-.3.3-.8 1.7-1.3 3a48 48 0 0 0-2.6 9.8c-.8 3.4-1.7 7.9-2 10.5a204 204 0 0 1-2 12.8c-.4 1.2-.4 5.3 0 5.4.4 0 1.7-2.1 2-3.3.2-.5.5-1.3.9-1.8l.6-1.1c0-.1.2-.6.6-1 .3-.5.7-1.3.8-1.8.1-.4.5-1.2.9-1.7a43.8 43.8 0 0 0 4-6.6l1-2 2.5-4a281.8 281.8 0 0 0 6.6-9.7l1.5-1.9a9 9 0 0 1 1.5-1.6L269 78a34 34 0 0 1 5.1-5c4.3-1.8 5-1 4.9 5 0 4.3-.6 8.8-1.2 10.2-.2.6-.3 1.2-.2 2.5.1 1.6 0 1.8-.4 3a7 7 0 0 0-.6 1.8c0 .3 0 .8-.2 1.1a334.3 334.3 0 0 1-2.1 10.3c-.4 2.7-1.7 4.6-2.3 3 0-.2.4-4.1.6-4.8l.3-2 1.2-8.2c.4-2.2.7-5.3 1-10.4l.6-4.2c.4-2.3.4-4.3 0-4.4-.3 0-1.2.7-2.3 1.7l-2 1.7c-.5 0-1.4 1-1.4 1.6 0 .6-1.7 2.6-2.7 3-.5.3-.8.6-.9 1a8.6 8.6 0 0 1-2.6 4.4c-1.3 1-1.5 1.3-1.7 2.3-.1 1.2-1 2.5-2.4 3.7-.5.5-1 1.3-1.3 1.8-.2.5-.6 1.2-.9 1.5-.3.4-.5.8-.4 1.3 0 .7-.2 1-1.9 2.6-.7.6-.8 1-.8 1.5 0 1-.4 1.8-1.5 2.8-.8.8-1 1.1-1.2 2.1a5 5 0 0 1-.8 1.8c-.2.3-.6.8-.7 1.2l-.8 1.5-.4 1.2c0 .6-1.1 3-2 4-.2.4-.5 1-.5 1.3 0 .2-.2 1-.5 1.6-.9 1.7-.6 3.2 1.2 7 .8 1.5 2 2 5.1 2 4 0 5-.4 5.7-2.7.5-1.6 2.1-3.7 5.2-6.7 1-1 1.7-1.9 1.7-2 0-.6.8-1.4 1.4-1.4.5 0 1-.3 3-1.8 1.6-1.1 3.6 2.3 2.9 4.7-.4 1.3-2.5 4-4.5 5.8l-2.9 2.7c-.5.4-1.3 1-2 1.3l-1.1.7-.6.2c-.7 0-.9.3-.3.8l1.2 1c1 .9 1.7.9 2.5 0 .5-.5 1-.8 1.5-1 .6 0 1-.2 1-.5.3-.6.5-.6 1.4 0 .4.3 1 .5 1.2.5.4 0 .8.3 1.4 1 1.1 1.4 1.9 1.2 2.6-.6.2-.5.6-1.2 1-1.6.3-.4.8-1.3 1-2 .4-.8 1-2 1.4-2.5l1.3-2.4c1.4-2.6 4.8-5.4 5.5-4.5.8 1 .5 3.5-1.1 7.7a37 37 0 0 0-1 3.5l-.9 2.6c-.3.4-.3 1-.3 2.4 0 1.7 0 2-.6 3.2a4 4 0 0 0-.5 2.4c0 2.4.5 1.7 2.2-3.6 1.4-4.4 1.5-4.5 4.2-5.3 1.6-.4 1.7-.4 2.6 2.3 1.2 3.3 1.2 3.3 2.9 0a23 23 0 0 1 1.7-3.3l1.4-3.2 1-2.4 1.2-.6c2.3-1.3 3-.6 3 3.5l.1 2.6.6.5c.5.2.6.4.6 1 .2 2.7-4 3.4-4.4.8-.3-1.8-.8-1.7-1.5.4-1.5 4.1-2.9 6.2-4.7 6.7-1.6.5-3.3-.5-4.1-2.3-1.1-2.3-1-2.3-2.1.2l-.8 1.8c-.5 1.4-1 2.1-2 2.6-.6.3-1 .8-1.2 1.1-.5 1.4-1.7.6-2.4-1.5-.6-2.3-.5-6 .5-9.6 1-3.4.1-3.4-1.2 0a131 131 0 0 0-2.3 3.5c-1.9 2.5-3.8 2.4-5.8-.5-1.2-1.7-2-1.8-2.7-.2-.2.4-.7 1.1-1.2 1.6-1.7 1.5-3.8 7.5-4 11.4 0 2 .2 2.4 1.3 2 .3-.2 1-.4 1.6-.4a6 6 0 0 0 2-.6c2.2-1.1 1.8.3-.4 1.6-2.4 1.4-3.6 1.4-5.4.2-1.6-1.1-1.8-2.9-.6-6a9 9 0 0 0 .6-2.2c0-1.3.8-4 1.8-5.7 1-2 1-2.3-.5-3a8 8 0 0 1-1.8-1.1c-1-.9-1.7-1.2-2.4-1-2.8.7-3.5.8-4.1.6l-1.5-.2c-1.3 0-4.4-1.3-5-2a10 10 0 0 1-1.7-3.7c0-.9-.4-2.6-.6-2.6-.2 0-1.5 3.2-1.5 3.7l-.3.8c-.3.4-1 3.4-1.3 5-.6 5.8-1 6.5-2.6 5.9-1.6-.6-2.2-2.5-1.5-4.6l.9-3.3c.4-1.5.8-2.6 1.3-3.5a9 9 0 0 0 1-2.5 107.7 107.7 0 0 0 2.1-13.8l.4-2.5.4-2.6a74.2 74.2 0 0 1 1.5-9.4c0-.9.3-2.1.5-2.8l.6-2.9a152 152 0 0 1 3.7-15.6 20 20 0 0 0 1.3-4.4c.3-1.5.1-1.6-1.7-.6a13.7 13.7 0 0 1-9.7.3c-1-.6-3.4-2.5-3.6-3-.7-1.7-2 .4-2.3 3.8-.2 3.3-1.2 4.5-2.7 3.3-1.2-.9 0-7.4 1.8-10.8.8-1.3 2.6-2 3.4-1.3m123.3.4c.8 1 1.4 5.2 1.2 7.5l-.1 2.6c0 1 0 1.6-.3 2a10 10 0 0 0-.5 2.4 35 35 0 0 1-.6 3.3c-.1.8-.4 2-.4 2.7a6 6 0 0 1-.4 1.5c-.3.6-1.3 3.7-1.6 5.2-.2.8-.5 1.8-.7 2l-1.8 3.6c-.2.5-.3 1.3-.3 1.8 0 .9-.1 1.2-.7 1.8-1 1-2 3.2-2.3 4.6l-1 4a42 42 0 0 0-1.5 11.3c0 2.2-.2 5-.3 6-.4 4 0 8.8.6 8.8l1.2-1 1.6-1.6c.7-.7 3-4 3-4.3l1.1-1.5 1.4-1.7c.4-.7 2.7-3.5 4.1-5 1.3-1.3 1.4-1.3 2.7-1.5 1.5-.1 1.4-.2 1.6 1.1l.1 1-2 2.2a34.8 34.8 0 0 0-4.9 6 49 49 0 0 1-3.1 4.4c-2.3 3-2.2 2.8-1.2 3.9 1.3 1.4 3.9 1.8 5 .8l1.2-.8a27 27 0 0 0 4.8-4.8c1.7-2.7 5.5-4.7 6-3.2.2.6.6 8 .4 8.5 0 .3 0 1 .3 1.8.5 1.4.4 1.7-.9 2.4-2.3 1.4-3 .4-3-4 0-1.5 0-2.9-.2-3-.2-.5-1-.2-1.2.5-.3.6-2.1 2.8-3.7 4.3-3.4 3.3-7.4 3.4-10.8.4-1.7-1.5-2.5-2-3.6-2l-1-.2c-1-.1-2-4.8-2-9.6a282 282 0 0 0 .1-10.4c.2-3 0-3.3-.7-2.5-.2.2-.4.6-.4 1 0 .5-.1.8-.7 1.2-.6.5-.7.7-.7 1.3 0 1-.5 1.8-1.8 3.2-2.1 2.3-2.6 3-2.5 4 0 .8 0 1-.4 1.2-1.3.7-2.6 2.4-2.6 3.5 0 .4-.2 1-.8 2l-1.5 2.7-1.7 2.8-1.3 2c-1.5 3-5.4 3.6-5.4 1 0-.4.4-1 1.5-2 1.5-1.5 3-4 3-5.1l.6-1.6c.4-.9.5-1.3.4-2.2l-.1-1.2c0-.6-3 .7-3.7 1.6l-1 1.4c-.5.5-1 1.2-1.2 1.6l-1 1.5c-.4.4-.9 1.2-1 1.7-.8 2-2.3 2.4-4.5 1l-1.7-.8c-.4-.2-.5-.5-.7-1.3-.4-3-.5-3-2.3 1.3-.3.8-.7 1.6-.7 1.9-1 3-6.5 2.6-6-.5v-1.7c-.1-.4-.3-1.6-.3-2.6-.1-1.4-.2-1.9-.5-1.9a26 26 0 0 0-3.3 6.9c-.4 1.5-1.8 2-2.8 1-.6-.7-.5-2.8.2-3.6.3-.3.7-1 .9-1.5l1-2.4 1-2.3c.8-2.3 5-4.3 6-2.9.6 1 1 3.6 1 8.1 0 1.6 1 1 1.3-.7 0-.5.4-1.1.7-1.5.3-.3.6-.9.7-1.2.3-1.4 1.3-2.1 3.2-2.6 1.8-.5 2.7.6 3 3.3.3 2.1.7 2 2.5-.7 2.7-4 4.1-5.2 7.5-6 2.8-.8 4-.5 4.5.7.4 1.2 1 1 1.9-.7.4-.8 1.1-2 1.5-2.4l1.4-2.1 1.3-2.2a98.9 98.9 0 0 0 7.8-14.8c.7-1.5 1.4-4.7 1.4-6.4 0-.7.3-2.1.6-3.2l.5-2.7c0-.4 0-1.1.3-1.6l.7-2.6.8-3.3c.2-.8.5-2 .5-2.8a49.7 49.7 0 0 1 1.3-7.7c.1-.7.5-2 .9-2.7a6 6 0 0 0 .6-2.8c0-1.5.6-3.4 1.3-4.1 1-.8 2.8-1.3 3.2-.8M96.6 74a105.1 105.1 0 0 1-7.4 15c-.4.7-.7 1.6-.7 2 0 1-.4 1.8-1.7 3.4a41 41 0 0 0-3 5.2c-1 2.2-2.5 5-3.1 6.1-1.7 3-1.7 3.1.6 3.1 1.2 0 2.5.2 4 .5l2.6.5 1.5.3c1.7.5 3-1.5 3-4.9l.4-3a57 57 0 0 0 1.2-7.4l1.4-9.3 1-6.2c.6-3.7.9-5.8.7-5.8l-.5.5M356 75c-.2.5-.5 2-.6 3.3-.2 2.5-.7 5.4-1.3 7.3l-.7 3a296 296 0 0 1-1.4 6.3c.1 0 1-1.8 1-2.1l.6-2a238.2 238.2 0 0 0 2.7-8.8 24.3 24.3 0 0 0 .6-7.2c-.3-.7-.6-.7-1 .2m-32 31.4c.2.3.8 2.4.8 2.7a43.1 43.1 0 0 0-6.3 7.7l-1.6 2a9 9 0 0 0-1.4 2c-1 2.2-3.5 1.4-3.5-1.1 0-.6 3.5-5.2 4.3-5.7l.8-1c.5-.8 5.1-6 5.8-6.5.4-.3 1-.3 1.2 0m-137.5 3c.8 1 .3 3.5-.8 3.8-1 .4-2.4-.4-2.5-1.3 0-2 2.2-3.9 3.3-2.6m118 2.3c.5 2.2-.7 4.2-2.4 4.2-1 0-1.8-2.3-1.2-3.5.7-1.2 3.2-1.7 3.5-.7m-259.6 1.6c1.5 1.2 1.5 2.1.1 2.9l-.9.7c-.2.6-.8.7-2.5.2-1.6-.5-2.1-.5-6-.6-2.3 0-5.5 0-7-.2-3.5-.2-12-.2-13.4 0-3 .6-3.3.6-4.6-.3-1.4-1-1.4-1.2-.5-2 1.1-1 1.6-1.1 9.8-1 10.6.1 21.3 0 22-.1 1.3-.4 2-.3 3 .4m333.5-.2c.6.8.3 3-.6 3.3-.4.2-3.1-.6-3.3-1-1-1.4 2.8-3.6 3.9-2.3m-110.5 7.7a16.7 16.7 0 0 0-6.3 6.5c-.3.5 0 .7.7.4.8-.3 5.6-5.1 6.1-6 .4-.8.2-1.1-.5-.9m-121.5 4c-1.5.5-3 1.7-3.9 3.2-2.2 3.6-3 8.2-1.4 8 .5-.1.7 0 .8.4.1.5 1.2.4 3.2-.1 1.5-.5 4-3.5 4.8-5.7 1.7-4.8.3-7.1-3.5-5.8m-55.7.3c.1.3.6.4.6 0l-.3-.3c-.2 0-.3.1-.3.3"/><path class="text" d="M102.3 56c-.9.4-.9.4-1.6 3.2a70 70 0 0 1-5.6 13.6l-1.8 3.5A155.7 155.7 0 0 1 88 87l-2 4.3a58 58 0 0 0-3 6 9 9 0 0 0-.9 1.5l-.7 1.3a23 23 0 0 0-1.7 3.5c-1.4 2.8-2.6 4.8-3.4 5.2-.7.4-1 .8-1.1 2.2-.1 1.2-2.6 6.4-3.8 8.2l-1.1 2.4L69 124l-4.6 9a20 20 0 0 1-1.7 2.9c-.3.3-.6 1-.8 1.4a9.8 9.8 0 0 1-2.8 3.6c-1.4 1.1-1.8 3-.7 3.2 1.4.4 2.9-.7 4.7-3.5a14 14 0 0 1 1.6-2.2c.4-.5.5-1.2.2-1.9-.3-.5.2-1.6 1.4-2.6 1-.8 1-1 1-1.7-.1-.8 0-1 .8-2.3a46 46 0 0 0 2.1-3.3c.3-.2.5-.6.5-.9 0-.5 0-.7 3.8-8.2l2.3-4.9c.3-.6 5.2-.7 11-.1l2.7.2-.1 1.2-.4 3a40 40 0 0 0-.7 7.3c-.2 2.3.4 5.6 1.4 6.7.7.8 2.7 1.3 3.7 1 .5-.3 3.3-3.3 4.6-5 .3-.5 1-1 1.3-1.3 1-.6 1.6-1.3 2.4-2.7 1-1.5 4-4.6 4.4-4.4.4.2.2 2-1 8.4l-.4 2.8c0 1-.4 2.5-.6 3.4-1 3.7-.8 4.6 1 4.8 1 .2 1 .2 1.5-.6.3-.5.7-1 1-1.2a10 10 0 0 0 1.5-3l.4-.8c1.7-2.1 2.7-4.3 2.5-5.1-.3-.7-.1-1.1.8-2.1l1.5-2c1.6-2.5 2.2-1.4.8 1.6-1.8 3.8-1.4 12 .6 12l1 .7c2.4 1.5 4 1.2 5.4-1.1 2.4-4 3-5.5 3-6.6 0-1 .1-1.2 1-2.2 1.3-1.5 1.5-2 1.7-3.8.2-1.9.5-2.6 1.4-3.4.5-.5.7-.8.7-1.4 0-.4.3-1.3.7-2l.8-2.1c.2-1.1 1.6-3.9 1.8-3.7.3.3.2 1-.4 6.8a64.6 64.6 0 0 0-.5 12c-.2 6.4.3 9.1 1.6 9.7.6.3 1.4 0 1.4-.6 0-1 .4-1.2 1.6-.6 1.1.6 2.6.8 3.2.4.4-.3 1-.4 2-.3 2.2 0 4-.8 6.4-3.1l1.8-1.8.9.2c2 .3 2.5 0 4.1-2.5.4-.5 1-1.2 1.4-1.4a3 3 0 0 0 1.2-1.5c1.1-2.2 2.1-1.6 1.4.8-1 3.3 3 6.1 4.8 3.4.8-1 1.3-.8 2 1.4 2 5.8 5.2 6.6 8 1.9.4-.9 1-1.6 1-1.6.4 0 1 .8 1 1.3 0 .2.2.4.6.5.3 0 .9.3 1.3.5 2 1 3.7-1.6 2-3-.7-.5-.9-.9-1.3-2.4-.8-2.6-1.9-3.4-3.3-2.5-.8.5-1.8 1.5-1.8 1.7 0 .2-2 3.5-2.5 4.3-.9 1.2-1.2 1-2.2-2.7l-1-2.6-.5-1.1-1.4.1c-1.2.1-1.4.2-2.1.9-1.1 1-1.2.9-1-2.7 0-4.3-.2-4.8-2.5-4.2-1 .4-1.4.6-2.7 2l-2 1.9a26 26 0 0 0-3 3.6c-1 1.6-1.3 1-.7-1 1-4.1-.4-7-3.6-7.2-5-.2-8.6 2.3-11.6 8.1a12 12 0 0 0-.8 4.4c0 1.3-.2 2.2-.5 3.3-.1.6-1 .3-1.1-.4a58.6 58.6 0 0 1 .3-13.4c-.1-3.4.3-8.2.8-10 .3-.8.4-2.1.5-3.4 0-1.3.2-2.5.4-3a7 7 0 0 0 .3-2c0-2.5 2.1-10.3 3.1-11.3.4-.3.6-.3 9.5-.4 2.4 0 2.7-.2 3-1.1.2-.8-.2-1-2-1.2-4.9-.4-8.5-.9-8.9-1-.7-.5 1.3-7.3 3.3-11.5 1.1-2.4 1.3-2.9 1.1-3.3l-.2-1c0-1.2-.4-1.5-1.3-1.2-1.8.7-2.6 2-3.7 6.7a65.3 65.3 0 0 1-2 7.3c-.8 3.1-.6 2.9-2.7 2.7-1 0-2.1-.2-2.6-.4-.4-.1-1-.2-1.1-.1-4 1.3-3.3 3.2 1.2 3.6l2.2.3h.9v1a5 5 0 0 1-.3 1.7l-1.6 5.3a30 30 0 0 1-2 4.7l-1.2 3.2c-.5 1.2-1.1 2.7-1.5 3.3l-.7 1.8-1 2.5-2 4.6-1.5 3.2c-.2.2-.6 1-.9 1.9-.2.8-1 2.2-1.5 3.3l-1.4 2.8c-.3 1-1.5 2.2-2 2.2-2.4 0-2.7-2.5-1.4-10.8.3-1.9.4-2.7.2-3.2a6 6 0 0 1-.2-1.4c0-2-3.5.1-5 3a13 13 0 0 1-1.2 1.8l-1.5 2.5a51.3 51.3 0 0 1-2.5 4.6c-.1.5-.6.6-.8.1-.1-.4.1-1 .7-1.7 1.4-1.8 2.4-13 1.3-14.3-1-1-3.4-.3-5.6 1.6a37.7 37.7 0 0 0-5.8 8 31 31 0 0 1-2.9 4c-1.1 1.2-2.5 0-2.5-2.3 0-.7-.2-1.4-.4-1.9-.4-.7-.4-.8-.1-1.3.4-.8.4-1-.2-1.6-.7-.5-.6-1.3.2-1.4.5 0 .8-1.4.3-1.8-1.2-1.3 1-6.3 3.2-7 .4-.2-.1-1.2-.8-1.6-1-.4-1-1.3 0-5.3.8-3 .9-3.9.7-6 0-.6.1-1.2.5-2a9 9 0 0 0 .7-3.2c0-1.3.3-2.6.6-3.7.5-1.4.6-2 .6-4.8 0-2.6.1-3.3.4-3.9.3-.5.3-.8.1-1.2-.2-.5-.1-.8.2-1.8.4-1 .5-1.6.5-3s0-1.7.4-2.2c.5-.8.7-1.7.9-4.6.1-1.9.2-2.2.7-2.7a10 10 0 0 0 1.6-4.3c0-.4.3-1.2.6-1.7 1.2-2.3.5-4.5-1.2-3.8M234 64c-2.2.7-5 10.8-3.2 12.1 1.5 1.2 2.5 0 2.7-3.3.3-3.4 1.6-5.5 2.3-3.8.2.5 2.6 2.4 3.6 3 2.1 1 7.5 1 9.7-.3 1.8-1 2-1 1.7.6a20 20 0 0 1-1.3 4.4c-.3.7-.6 2-.8 3l-.6 2.5a152 152 0 0 0-3.8 18.2 74.2 74.2 0 0 0-1.5 9.6l-.4 2.5c0 .4 0 1.5-.3 2.5l-.5 3.8-1.3 7.5a9 9 0 0 1-1 2.5c-.5.9-1 2-1.3 3.5a55 55 0 0 1-.9 3.3c-.7 2.1-.1 4 1.5 4.6 1.6.6 2-.1 2.6-6a21.1 21.1 0 0 1 1.6-5.7c0-.5 1.3-3.7 1.5-3.7.2 0 .6 1.7.6 2.6 0 .7.6 2 1.8 3.7.5.7 3.6 2 4.9 2 .4 0 1.1 0 1.5.2.6.2 1.3 0 4-.6.8-.2 1.6.1 2.5 1a8 8 0 0 0 1.8 1.2c1.5.6 1.5.9.5 3-1 1.6-1.8 4.3-1.8 5.6a9 9 0 0 1-.6 2.3c-1.2 3-1 4.8.6 5.9 1.8 1.2 3 1.2 5.4-.2 2.2-1.3 2.6-2.7.5-1.6a6 6 0 0 1-2 .6c-.6 0-1.4.2-1.7.3-1.1.5-1.4 0-1.3-2 .2-3.8 2.3-9.8 4-11.3.5-.5 1-1.2 1.2-1.6.6-1.6 1.5-1.5 2.7.2 2 2.9 4 3 5.8.5l1.3-1.8c.4-.5.9-1.3 1-1.8 1.3-3.3 2.1-3.3 1.2 0-1 3.8-1.1 7.4-.5 9.7.7 2.1 1.9 2.9 2.4 1.5.2-.3.6-.8 1.2-1 1-.6 1.5-1.3 2-2.7l1.4-3.3.5-.4c.2.1.3.2 1 1.7.8 1.8 2.5 2.8 4.1 2.3 1.8-.5 3.2-2.6 4.7-6.7.7-2.1 1.2-2.2 1.5-.4.5 2.6 4.6 1.9 4.4-.7 0-.7-.1-1-.6-1.1l-.6-.5v-2.6c-.2-4.1-.8-4.8-3.1-3.5l-1.3.6-1 2.4a11 11 0 0 1-1.4 3.2l-1.6 3.2c-1.7 3.4-1.7 3.4-2.9.1-1-2.7-1-2.7-2.6-2.3-2.7.8-2.8 1-4.2 5.3-1.7 5.3-2.1 6-2.2 3.6 0-1 0-1.4.5-2.4.6-1.2.6-1.5.6-3.2 0-1.4 0-2 .3-2.4l.9-2.6a37 37 0 0 1 1-3.5c1.6-4.2 2-6.6 1-7.7-.6-1-4 2-5.4 4.5l-1.4 2.4c-.3.6-1 1.7-1.2 2.4-.3.8-.8 1.7-1.2 2.1l-.9 1.6c-.7 1.8-1.5 2-2.6.6-.6-.7-1-1-1.4-1-.3 0-.8-.2-1.2-.5-.9-.6-1.1-.6-1.4 0 0 .3-.4.5-1 .6-.5 0-1 .4-1.5.9-.8.9-1.5.9-2.5 0l-1.2-1c-.6-.5-.4-.8.3-.8.2 0 .5 0 .6-.2l1.2-.7 1.9-1.3 3-2.7c1.9-1.8 4-4.5 4.4-5.8.7-2.4-1.3-5.8-2.8-4.7-2 1.5-2.6 1.8-3.1 1.8-.6 0-1.4.8-1.4 1.4l-1.7 2c-3 3-4.7 5.1-5.2 6.7-.8 2.3-1.6 2.7-5.7 2.7-3 0-4.3-.5-5.1-2-1.8-3.8-2-5.3-1.2-7a5 5 0 0 0 .5-1.6c0-.3.3-1 .6-1.3.8-1 1.9-3.4 1.9-4l.4-1.2.8-1.5c.1-.4.5-1 .7-1.2a5 5 0 0 0 .8-1.8c.2-1 .4-1.3 1.2-2.1 1.1-1 1.5-1.7 1.5-2.8 0-.5.1-.9.8-1.5 1.7-1.6 2-1.9 1.9-2.6 0-.5 0-1 .4-1.3l1-1.5c.1-.5.7-1.3 1.2-1.8 1.4-1.2 2.3-2.5 2.4-3.7.2-1 .4-1.3 1.7-2.3 1-.8 2.3-2.8 2.6-4.4 0-.4.4-.7.9-1 1-.4 2.7-2.4 2.7-3 0-.5.9-1.6 1.3-1.6.2 0 1.1-.8 2.1-1.7s2-1.8 2.2-1.7c.5 0 .5 2.1.1 4.4l-.5 4.2-1 10.4a144.3 144.3 0 0 0-1.6 10.2c-.2.7-.7 4.6-.6 4.9.6 1.5 2-.4 2.2-3.1l.5-2.5a334.3 334.3 0 0 0 1.7-7.8l.2-1c0-.4.3-1.2.6-1.9.5-1.2.5-1.4.4-3 0-1.3 0-2 .2-2.5.6-1.4 1.1-5.9 1.2-10.1 0-6.2-.7-6.9-4.9-5.1-.6.3-4.5 4-5.1 5l-1.2 1.3a9 9 0 0 0-1.5 1.6l-1.5 2-1.2 1.5-5.4 8.1a42.7 42.7 0 0 0-3.5 6l-1 1.6c-.6 1.2-1.6 3-3 5-.4.5-.8 1.3-.9 1.7-.1.5-.5 1.3-.8 1.7l-.6 1-.6 1.2c-.4.5-.7 1.3-.9 1.8-.3 1.2-1.6 3.4-2 3.3-.4 0-.4-4.2 0-5.4l.4-2 .4-2.4 1.2-8.4a109.9 109.9 0 0 1 7.9-28.6c1.7-3.3-1.1-4.7-4-2-1.4 1.3-3 2-5.5 2.6l-2 .5-1.5-.6c-1.7-.7-2.3-1-3-2.2-2.5-3.5-3-4-4.8-3.4m123.4.5c-1.6.6-2.6 2.4-2.6 4.8a6 6 0 0 1-.6 2.8c-.4.8-.8 2-.9 2.7a172.1 172.1 0 0 1-1.3 7.7c0 .8-.3 2-.5 2.8a138.8 138.8 0 0 0-2.9 13.4c0 1.7-.7 4.9-1.4 6.4l-1 2.3a98.9 98.9 0 0 1-9.5 16.8l-1.5 2.4c-1 1.7-1.5 2-2 .7-.3-1.2-1.6-1.5-4.4-.8-3.4.9-4.8 2-7.5 6.1-1.8 2.7-2.2 2.8-2.5.7-.3-2.7-1.2-3.8-3-3.3-2 .5-2.9 1.2-3.2 2.6 0 .3-.4.9-.7 1.2-.3.4-.6 1-.7 1.5-.3 1.8-1.3 2.3-1.4.7 0-4.5-.3-7.1-1-8-.9-1.5-5 .5-6 2.8 0 .4-.5 1.4-1 2.3l-1 2.4c0 .5-.5 1.2-.8 1.5-.7.8-.8 3-.2 3.7 1 1 2.4.4 2.8-1.1a26 26 0 0 1 3.3-6.9c.3 0 .4.5.5 2 0 1 .2 2.1.3 2.5v1.7c-.5 3 5 3.6 6 .5l.7-2c1.8-4.2 2-4.2 2.3-1.2.2.8.3 1 .7 1.3.3 0 1 .5 1.7.9 2.2 1.3 3.7 1 4.4-1 .2-.6.7-1.4 1-1.8l1.1-1.5 1.1-1.6c.4-.5 1-1 1.1-1.4.6-.9 3.7-2.2 3.7-1.6l.1 1.2c.1 1 0 1.3-.4 2.2l-.5 1.6c0 1-1.6 3.6-3.1 5-1.1 1.2-1.5 1.7-1.5 2 0 2.7 4 2 5.4-.8l1.3-2.1 1.7-2.8 1.5-2.8c.6-.8.8-1.5.8-2 0-1 1.3-2.7 2.6-3.4.3-.2.4-.4.4-1.2 0-1 .4-1.7 2.5-4 1.3-1.4 1.8-2.2 1.8-3.2 0-.6 0-.8.7-1.3.6-.4.7-.7.7-1.2 0-.4.2-.8.4-1 .8-.8.9-.5.7 2.5a97.6 97.6 0 0 0-.1 10.4c0 4.8 1 9.5 2 9.6l1 .1c1 .1 2 .6 3.6 2.1 3.4 3 7.4 2.9 10.8-.4 1.6-1.5 3.4-3.7 3.7-4.3.3-.7 1-1 1.2-.5l.2 3c0 4.4.7 5.4 3 4 1.3-.7 1.4-1 1-2.4-.3-.7-.4-1.5-.4-1.8.2-.6-.2-7.9-.4-8.5-.5-1.5-4.3.5-6 3.2a27 27 0 0 1-6 5.6c-1.1 1-3.7.6-5-.8-1-1.1-1-.9 1.2-3.9a49 49 0 0 0 3.1-4.4c2-2.9 2.4-3.4 4.9-6l2-2.1-.1-1c-.2-1.4-.1-1.3-1.6-1.2-1.3.2-1.4.2-2.7 1.5a41.8 41.8 0 0 0-5.5 6.7c-.6.7-1 1.4-1 1.5a25 25 0 0 1-5.9 7c-.6 0-1-5-.6-8.8.1-1.2.3-4 .3-6.1a42 42 0 0 1 1.5-11.3l1-4c.3-1.4 1.4-3.6 2.3-4.6.6-.6.7-.9.7-1.8 0-.5.1-1.3.3-1.8.6-1.4 1.4-3 1.8-3.5l.7-2.1c.3-1.5 1.3-4.6 1.6-5.2l.4-1.5c0-.7.3-1.9.4-2.7l.6-3.3c0-1 .3-2 .5-2.4.2-.4.3-1 .3-2V72c.3-2.3-.3-6.5-1.1-7.5-.3-.3-.9-.3-1.9 0M97.1 74.7l-.8 4.6-.9 6.2a122.1 122.1 0 0 1-2 12.6 57 57 0 0 1-1 7.1c0 3.4-1.3 5.4-3 4.9l-1.5-.3-2.7-.5a19 19 0 0 0-4-.5c-2.2 0-2.2 0-.5-3l3.1-6.2a41 41 0 0 1 3-5.2c1.3-1.6 1.7-2.4 1.7-3.4 0-.4.3-1.3.6-2 .4-.7.6-1.3.6-1.5l.6-1c.8-1 5.8-11.2 5.8-11.9 0-.2.8-1 1-1v1.1m259.8.2a24.3 24.3 0 0 1-.6 7.2l-.6 2.4A238.2 238.2 0 0 1 352 95l.4-2.2a296 296 0 0 0 3-14.4c.3-3.3 1-5 1.5-3.5m-34 31.7a83.6 83.6 0 0 0-6.7 7.5c-.8.5-4.3 5.1-4.3 5.7 0 2.5 2.5 3.3 3.5 1.1a9 9 0 0 1 1.4-2l1.6-2c1-1.7 3-4.1 5.1-6.3 1.4-1.4 1.3-1.2 1-2.7-.5-1.7-.9-2-1.7-1.3m-138.1 2.8c-1.9 1.2-2 3.4-.4 3.9 1.4.3 1.6.2 2.3-1 1-2-.2-4-2-2.9m117.4 2.2c-1.5.5-1.8 2.4-.7 3.8.8 1 2.8.3 3.1-1 .7-2.5-.2-3.6-2.4-2.8M41.8 113c-.7.2-11.4.2-22 0-8.2 0-8.7 0-9.8 1-1 1-.9 1.1.5 2.1 1.3.9 1.7.9 4.6.3 1.4-.2 10-.2 13.5 0 1.4.2 4.6.2 7 .2 3.8 0 4.3.1 5.9.6 1.7.5 2.3.4 2.5-.2 0-.2.5-.5 1-.7 2.4-1.3-.3-4.2-3.2-3.3m333.2.7c-1.4 1.2-1 2 1 2.5 1.7.5 2 .5 2.4-.6 1-2.4-1.3-3.7-3.4-2M268.5 121c.5.8-6.4 7.6-7 7-.2-.2-.1-.4 0-.6l.7-1.1c1.3-2.5 5.7-6.2 6.3-5.3m-118.8 4c2.3 2.3-1 10.3-4.7 11.4-2 .5-3 .6-3.2 0-.1-.3-.3-.4-.8-.4-2.4.4.3-7.8 3.2-10 2-1.5 4.7-2 5.5-1m-58.5.2c0 .4-.5.3-.6 0 0-.2 0-.3.3-.3l.3.3"/></g><style>.text{fill:#d4d4d4}@media (prefers-color-scheme:light){.text{fill:#404040}}</style></svg>